<svg viewBox="0 0 212 212" fill="none" xmlns="http://www.w3.org/2000/svg">
    <path opacity="0.3" fill-rule="evenodd" clip-rule="evenodd" d="M226.674 9.94531C226.674 4.97475 230.703 0.945313 235.674 0.945313L246.406 0.945313C251.377 0.945313 255.406 4.97475 255.406 9.94531L255.406 202.945C255.406 207.916 251.377 211.945 246.406 211.945H235.674C230.703 211.945 226.674 207.916 226.674 202.945L226.674 9.94531ZM171.005 87.5774C171.005 82.6068 175.034 78.5774 180.005 78.5774H190.737C195.708 78.5774 199.737 82.6068 199.737 87.5774L199.737 202.945C199.737 207.916 195.708 211.945 190.737 211.945H180.005C175.034 211.945 171.005 207.916 171.005 202.945L171.005 87.5774ZM65.161 4.92644C61.1349 4.92644 57.871 8.19028 57.871 12.2164L57.871 204.655C57.871 208.681 61.1349 211.945 65.161 211.945H79.3134C83.3396 211.945 86.6034 208.681 86.6034 204.655L86.6034 12.2164C86.6034 8.19029 83.3396 4.92644 79.3134 4.92644L65.161 4.92644ZM0.40625 137.622C0.40625 133.596 3.67009 130.332 7.69625 130.332H21.8486C25.8748 130.332 29.1386 133.596 29.1386 137.622L29.1386 204.655C29.1386 208.681 25.8748 211.945 21.8486 211.945H7.69624C3.67009 211.945 0.40625 208.681 0.40625 204.655L0.40625 137.622ZM120.83 46.7283C116.804 46.7283 113.54 49.9922 113.54 54.0183L113.54 204.655C113.54 208.681 116.804 211.945 120.83 211.945H134.982C139.009 211.945 142.272 208.681 142.272 204.655L142.272 54.0183C142.272 49.9922 139.009 46.7283 134.982 46.7283L120.83 46.7283Z" fill="#B3D9FF"/>
</svg>