<?xml version="1.0" encoding="UTF-8"?>
<svg width="74px" height="28px" viewBox="0 0 74 28" version="1.1" xmlns="http://www.w3.org/2000/svg" xmlns:xlink="http://www.w3.org/1999/xlink">
    <!-- Generator: sketchtool 57.1 (101010) - https://sketch.com -->
    <title>2A7066B7-C0DC-4103-9D18-50F2BA36C157</title>
    <desc>Created with sketchtool.</desc>
    <g id="assets" stroke="none" stroke-width="1" fill="none" fill-rule="evenodd" opacity="0.23563058">
        <g id="WAI_404" transform="translate(-111.000000, -220.000000)" fill="#FFFFFF">
            <path d="M150.375,220.790815 C161.213588,220.790815 170,224.15718 170,228.309803 C170,228.382922 169.997276,228.455797 169.991864,228.528414 C178.608912,229.336257 185,232.298379 185,235.82879 C185,239.981412 176.157624,243.347777 165.25,243.347777 C164.68357,243.347777 164.12271,243.338699 163.568367,243.320904 C160.516645,245.954254 153.630617,247.790815 145.625,247.790815 C134.786412,247.790815 126,244.42445 126,240.271828 C126,240.084644 126.017853,239.899059 126.052941,239.715307 C117.412853,238.913678 111,235.947486 111,232.411068 C111,228.258446 119.842376,224.892081 130.75,224.892081 C131.454017,224.892081 132.14943,224.906105 132.834418,224.933459 C136.061741,222.476857 142.704455,220.790815 150.375,220.790815 Z" id="Combined-Shape-Copy-3"></path>
        </g>
    </g>
</svg>