<?xml version="1.0" encoding="UTF-8"?>
<svg width="112px" height="47px" viewBox="0 0 112 47" version="1.1" xmlns="http://www.w3.org/2000/svg" xmlns:xlink="http://www.w3.org/1999/xlink">
    <!-- Generator: sketchtool 57.1 (101010) - https://sketch.com -->
    <title>967B90DB-8357-4D5D-B38B-84D56198CF6C</title>
    <desc>Created with sketchtool.</desc>
    <g id="assets" stroke="none" stroke-width="1" fill="none" fill-rule="evenodd">
        <g id="WAI_404" transform="translate(-119.000000, -287.000000)" fill="#FFFFFF">
            <path d="M178.502854,287 C194.881951,287 208.159832,292.859969 208.159832,300.088608 C208.159832,300.215361 208.15575,300.341693 208.147639,300.467581 C221.169271,301.875288 230.827586,307.031618 230.827586,313.177215 C230.827586,320.405854 217.465132,326.265823 200.98171,326.265823 C200.126165,326.265823 199.279027,326.250036 198.441729,326.219091 C193.828814,330.803001 183.422732,334 171.324732,334 C154.945635,334 141.667754,328.140031 141.667754,320.911392 C141.667754,320.586273 141.694614,320.263923 141.747407,319.94475 C128.691365,318.547401 119,313.383951 119,307.227848 C119,299.99921 132.362454,294.139241 148.845876,294.139241 C149.910459,294.139241 150.962023,294.163684 151.997811,294.21136 C156.875711,289.934137 166.91288,287 178.502854,287 Z" id="Combined-Shape-Copy"></path>
        </g>
    </g>
</svg>