<?xml version="1.0" encoding="UTF-8"?>
<svg width="321px" height="208px" viewBox="0 0 321 208" version="1.1" xmlns="http://www.w3.org/2000/svg" xmlns:xlink="http://www.w3.org/1999/xlink">
    <!-- Generator: sketchtool 57.1 (101010) - https://sketch.com -->
    <title>10706F01-214F-4E90-AABD-F3F202276ABE</title>
    <desc>Created with sketchtool.</desc>
    <g id="assets" stroke="none" stroke-width="1" fill="none" fill-rule="evenodd">
        <g id="WAI_404" transform="translate(-264.000000, -271.000000)">
            <g id="Group-2" transform="translate(264.000000, 271.000000)">
                <g id="Group" transform="translate(0.000000, 108.045898)" fill="#FFFFFF">
                    <path d="M157.5,0 C200.854353,0 236,22.8471771 236,36.2278481 C236,36.4629321 235.989152,36.697234 235.967601,36.9307089 C270.436661,39.5356919 296,49.0801516 296,60.4556962 C296,73.8363672 260.630495,84.6835443 217,84.6835443 C214.735209,84.6835443 212.492677,84.6543167 210.276196,84.5970244 C198.066857,93.0821314 170.52263,99 138.5,99 C95.1456471,99 60,88.1528229 60,74.7721519 C60,74.1693425 60.0713306,73.571675 60.2115288,72.9799095 C25.6521454,70.3961651 0,60.8383245 0,49.443038 C0,36.0623669 35.3695048,25.2151899 79,25.2151899 C80.9577699,25.2151899 82.8989067,25.2370302 84.8209611,25.2799598 C96.5337553,13.1073397 124.662226,0 157.5,0 Z" id="Combined-Shape"></path>
                </g>
                <rect id="Rectangle" fill="#202E3D" x="133" y="54.0458984" width="40.5" height="37.5" rx="2"></rect>
                <rect id="Rectangle-Copy-5" fill="#FBF1D9" x="133" y="13.9208984" width="40.5" height="37.5" rx="2"></rect>
                <rect id="Rectangle-Copy-5" stroke="#4B4A65" stroke-width="2" x="159.61" y="22.0458984" width="17.28" height="16" rx="2"></rect>
                <rect id="Rectangle-Copy-6" stroke="#4B4A65" stroke-width="2" x="135.97" y="22.0458984" width="17.28" height="16" rx="2"></rect>
                <rect id="Rectangle-Copy-3" fill="#FFFFFF" x="148.240723" y="51.4208984" width="10" height="2.625"></rect>
                <rect id="Rectangle-Copy-7" fill="#4C4967" x="152.375" y="28.5458984" width="7.5" height="3" rx="1"></rect>
                <rect id="Rectangle-Copy" fill="#202E3D" x="134.5" y="88.0458984" width="37.5" height="7.5" rx="2"></rect>
                <rect id="Rectangle" fill="#202E3D" x="138.25" y="91.5458984" width="5" height="15" rx="2"></rect>
                <rect id="Rectangle-Copy-2" fill="#202E3D" x="163.25" y="91.5458984" width="5" height="15" rx="2"></rect>
                <polygon id="Triangle" fill="#FFFFFF" transform="translate(153.240723, 56.920898) scale(1, -1) translate(-153.240723, -56.920898) " points="153.240723 54.0458984 158.240723 59.7958984 148.240723 59.7958984"></polygon>
                <polygon id="Triangle" fill="#0066CC" transform="translate(153.240723, 52.714648) scale(1, -1) translate(-153.240723, -52.714648) " points="153.240723 51.4208984 155.490723 54.0083984 150.990723 54.0083984"></polygon>
                <polygon id="Triangle-Copy" fill="#0066CC" points="153.240723 54.0083984 155.211914 57.5090332 151.269531 57.5090332"></polygon>
                <polygon id="Triangle-Copy-2" fill="#0066CC" transform="translate(153.240723, 58.652466) scale(1, -1) translate(-153.240723, -58.652466) " points="153.240723 57.5090332 155.211914 59.7958984 151.269531 59.7958984"></polygon>
                <circle id="Oval" fill="#FFFFFF" cx="169.25" cy="30.0458984" r="3.5"></circle>
                <circle id="Oval" fill="#4B4A65" cx="170.5" cy="30.0458984" r="2.25"></circle>
                <path d="M142.619629,26.5458984 L146.67533,29.0711996 C147.14416,29.3631188 147.287575,29.9798279 146.995656,30.448658 C146.893285,30.6130678 146.745374,30.7442126 146.56989,30.826162 L142.619629,32.6708984 L142.619629,32.6708984" id="Path-5" stroke="#4B4A65"></path>
                <path d="M165.031738,17.9560547 C183.696777,19.1764323 188.64209,13.1910807 179.867676,1.0658141e-13 C177.987305,1.0658141e-13 177.603027,9.64208984 173.5,9.64208984 C175.327637,7.93085173 172.75,2.75244141 172.75,2.75244141 C172.75,2.75244141 172.75,7.08691406 167.115234,6.37841797 C161.480469,5.66992187 156.615723,1.90966797 143.927246,1.90966797 C131.23877,1.90966797 129.315918,9.64208984 127.994141,13.9208984 C126.672363,18.199707 128.647461,27.2856445 130.82373,32.2958984 C132.274577,35.6360677 133.247884,37.0823568 133.743652,36.6347656 C134.311686,24.2041016 134.595703,17.5043945 134.595703,16.5356445 C134.595703,15.5668945 144.741048,16.0403646 165.031738,17.9560547 Z" id="Path-15" fill="#023365"></path>
                <polygon id="Path-6" fill="#FDF1D6" points="193.410645 36.7141019 201.101074 36.7141019 201.101074 28.5458984 192.410645 28.5458984"></polygon>
                <path d="M314.5,10.0458984 C315.052285,10.0458984 315.5,10.4936137 315.5,11.0458984 L315.5,49.0458984 C315.5,49.5981832 315.052285,50.0458984 314.5,50.0458984 L256,50.0458984 C255.447715,50.0458984 255,49.5981832 255,49.0458984 L254.999652,41.5458984 L211.104004,41.5458984 C210.551719,41.5458984 210.104004,41.0981832 210.104004,40.5458984 L210.103652,33.5458984 L183.993652,33.5458984 C183.441368,33.5458984 182.993652,33.0981832 182.993652,32.5458984 L182.993652,27.5458984 C182.993652,26.9936137 183.441368,26.5458984 183.993652,26.5458984 L210.103652,26.5458984 L210.104004,19.5458984 C210.104004,18.9936137 210.551719,18.5458984 211.104004,18.5458984 L254.999652,18.5458984 L255,11.0458984 C255,10.4936137 255.447715,10.0458984 256,10.0458984 L314.5,10.0458984 Z" id="Combined-Shape" fill="#7DBEFF"></path>
                <ellipse id="Oval" fill="#003369" cx="314.25" cy="30.0458984" rx="6.25" ry="20"></ellipse>
                <path d="" id="Path-7" stroke="#979797"></path>
                <path d="M192.910645,36.7141019 C192.577311,36.7141019 195.307454,36.7141019 201.101074,36.7141019 C201.101074,51.3396778 191.900716,58.2713216 173.5,57.5090332 C173.5,57.5090332 173,56.3546549 172,54.0458984 C186.706706,55.1877767 193.676921,49.4105112 192.910645,36.7141019 Z" id="Path-10" fill="#1C2E3E"></path>
                <path d="M135.719292,55.7744141 C132.03827,53.9586778 118.770776,61.8427002 120.88894,72.8320313 C122.30105,80.158252 126.2545,84.729541 132.749292,86.5458984 L132.749292,75.8076172 C129.72476,75.242914 127.913888,74.251052 127.316676,72.8320313 C124.769139,66.7788833 128.097152,59.4711262 135.502402,60.2708767 C136.408026,60.3686821 135.719292,57.202823 135.719292,55.7744141 Z" id="Path-17" fill="#1C2E3E"></path>
                <path d="M139.095,81.4445143 C139.095,78.1472438 137.011667,76.4986086 132.845,76.4986086 L132.845,85.9136477 C137.011667,86.2314959 139.095,84.7417848 139.095,81.4445143 Z" id="Path-18" fill="#FDF1D6"></path>
            </g>
        </g>
    </g>
</svg>