<svg xmlns="http://www.w3.org/2000/svg" fill="none" width="1140" height="200"><rect id="backgroundrect" width="100%" height="100%" x="0" y="0" fill="none" stroke="none" class="selected" style=""/>
    
<g class="currentLayer" style=""><title>Layer 1</title><path opacity="0.3" fill-rule="evenodd" clip-rule="evenodd" d="M226.26775,8.999997 C226.26775,4.0294370000000015 230.29675,1.3322676295501884e-15 235.26775,1.3322676295501884e-15 L245.99975,1.3322676295501884e-15 C250.97075,1.3322676295501884e-15 254.99975,4.0294370000000015 254.99975,8.999997 L254.99975,201.999687 C254.99975,206.970687 250.97075,210.999687 245.99975,210.999687 H235.26775 C230.29675,210.999687 226.26775,206.970687 226.26775,201.999687 L226.26775,8.999997 zM170.59875,86.632087 C170.59875,81.66148700000001 174.62775,77.632087 179.59875,77.632087 H190.33075 C195.30175,77.632087 199.33075,81.66148700000001 199.33075,86.632087 L199.33075,201.999687 C199.33075,206.970687 195.30175,210.999687 190.33075,210.999687 H179.59875 C174.62775,210.999687 170.59875,206.970687 170.59875,201.999687 L170.59875,86.632087 zM64.75475,3.9811270000000007 C60.72865,3.9811270000000007 57.46475,7.244967000000003 57.46475,11.271087000000001 L57.46475,203.709687 C57.46475,207.735687 60.72865,210.999687 64.75475,210.999687 H78.90715 C82.93335,210.999687 86.19715,207.735687 86.19715,203.709687 L86.19715,11.271087000000001 C86.19715,7.2449770000000004 82.93335,3.9811270000000007 78.90715,3.9811270000000007 L64.75475,3.9811270000000007 zM0,136.67668700000002 C0,132.650687 3.26384,129.386687 7.290000000000001,129.386687 H21.44235 C25.46855,129.386687 28.73235,132.650687 28.73235,136.67668700000002 L28.73235,203.709687 C28.73235,207.735687 25.46855,210.999687 21.44235,210.999687 H7.28999 C3.26384,210.999687 0,207.735687 0,203.709687 L0,136.67668700000002 zM120.42375,45.782987 C116.39775,45.782987 113.13375,49.046887 113.13375,53.072987000000005 L113.13375,203.709687 C113.13375,207.735687 116.39775,210.999687 120.42375,210.999687 H134.57575 C138.60275,210.999687 141.86575,207.735687 141.86575,203.709687 L141.86575,53.072987000000005 C141.86575,49.046887 138.60275,45.782987 134.57575,45.782987 L120.42375,45.782987 z" fill="#B3D9FF" id="svg_1" class=""/><path opacity="0.3" fill-rule="evenodd" clip-rule="evenodd" d="M510.813204621315,48.09090683867645 C510.813204621315,43.120346838676454 514.842204621315,39.09090983867645 519.813204621315,39.09090983867645 L530.545204621315,39.09090983867645 C535.516204621315,39.09090983867645 539.545204621315,43.120346838676454 539.545204621315,48.09090683867645 L539.545204621315,241.09059683867645 C539.545204621315,246.06159683867645 535.516204621315,250.09059683867645 530.545204621315,250.09059683867645 H519.813204621315 C514.842204621315,250.09059683867645 510.813204621315,246.06159683867645 510.813204621315,241.09059683867645 L510.813204621315,48.09090683867645 zM455.144204621315,125.72299683867645 C455.144204621315,120.75239683867646 459.173204621315,116.72299683867645 464.144204621315,116.72299683867645 H474.87620462131497 C479.847204621315,116.72299683867645 483.87620462131497,120.75239683867646 483.87620462131497,125.72299683867645 L483.87620462131497,241.09059683867645 C483.87620462131497,246.06159683867645 479.847204621315,250.09059683867645 474.87620462131497,250.09059683867645 H464.144204621315 C459.173204621315,250.09059683867645 455.144204621315,246.06159683867645 455.144204621315,241.09059683867645 L455.144204621315,125.72299683867645 zM349.300204621315,43.07203683867645 C345.274104621315,43.07203683867645 342.010204621315,46.335876838676455 342.010204621315,50.36199683867645 L342.010204621315,242.80059683867646 C342.010204621315,246.82659683867647 345.274104621315,250.09059683867645 349.300204621315,250.09059683867645 H363.452604621315 C367.478804621315,250.09059683867645 370.74260462131497,246.82659683867647 370.74260462131497,242.80059683867646 L370.74260462131497,50.36199683867645 C370.74260462131497,46.33588683867646 367.478804621315,43.07203683867645 363.452604621315,43.07203683867645 L349.300204621315,43.07203683867645 zM284.545454621315,175.76759683867647 C284.545454621315,171.74159683867646 287.809294621315,168.47759683867645 291.835454621315,168.47759683867645 H305.98780462131504 C310.014004621315,168.47759683867645 313.277804621315,171.74159683867646 313.277804621315,175.76759683867647 L313.277804621315,242.80059683867646 C313.277804621315,246.82659683867647 310.014004621315,250.09059683867645 305.98780462131504,250.09059683867645 H291.835444621315 C287.809294621315,250.09059683867645 284.545454621315,246.82659683867647 284.545454621315,242.80059683867646 L284.545454621315,175.76759683867647 zM404.969204621315,84.87389683867644 C400.943204621315,84.87389683867644 397.679204621315,88.13779683867645 397.679204621315,92.16389683867646 L397.679204621315,242.80059683867646 C397.679204621315,246.82659683867647 400.943204621315,250.09059683867645 404.969204621315,250.09059683867645 H419.121204621315 C423.148204621315,250.09059683867645 426.411204621315,246.82659683867647 426.411204621315,242.80059683867646 L426.411204621315,92.16389683867646 C426.411204621315,88.13779683867645 423.148204621315,84.87389683867644 419.121204621315,84.87389683867644 L404.969204621315,84.87389683867644 z" fill="#B3D9FF" class="" id="svg_2"/><path opacity="0.3" fill-rule="evenodd" clip-rule="evenodd" d="M798.9950143446922,26.727277646562584 C798.9950143446922,21.756717646562578 803.0240143446922,17.727280646562576 807.9950143446922,17.727280646562576 L818.7270143446922,17.727280646562576 C823.6980143446922,17.727280646562576 827.7270143446922,21.756717646562578 827.7270143446922,26.727277646562584 L827.7270143446922,219.72696764656257 C827.7270143446922,224.69796764656257 823.6980143446922,228.72696764656257 818.7270143446922,228.72696764656257 H807.9950143446922 C803.0240143446922,228.72696764656257 798.9950143446922,224.69796764656257 798.9950143446922,219.72696764656257 L798.9950143446922,26.727277646562584 zM743.3260143446922,104.35936764656259 C743.3260143446922,99.3887676465626 747.3550143446922,95.35936764656259 752.3260143446922,95.35936764656259 H763.0580143446922 C768.0290143446922,95.35936764656259 772.0580143446922,99.3887676465626 772.0580143446922,104.35936764656259 L772.0580143446922,219.72696764656257 C772.0580143446922,224.69796764656257 768.0290143446922,228.72696764656257 763.0580143446922,228.72696764656257 H752.3260143446922 C747.3550143446922,228.72696764656257 743.3260143446922,224.69796764656257 743.3260143446922,219.72696764656257 L743.3260143446922,104.35936764656259 zM637.4820143446923,21.708407646562577 C633.4559143446922,21.708407646562577 630.1920143446922,24.972247646562575 630.1920143446922,28.99836764656257 L630.1920143446922,221.4369676465626 C630.1920143446922,225.46296764656256 633.4559143446922,228.72696764656257 637.4820143446923,228.72696764656257 H651.6344143446922 C655.6606143446922,228.72696764656257 658.9244143446922,225.46296764656256 658.9244143446922,221.4369676465626 L658.9244143446922,28.99836764656257 C658.9244143446922,24.972257646562582 655.6606143446922,21.708407646562577 651.6344143446922,21.708407646562577 L637.4820143446923,21.708407646562577 zM572.7272643446922,154.4039676465626 C572.7272643446922,150.37796764656258 575.9911043446923,147.11396764656257 580.0172643446922,147.11396764656257 H594.1696143446923 C598.1958143446923,147.11396764656257 601.4596143446922,150.37796764656258 601.4596143446922,154.4039676465626 L601.4596143446922,221.4369676465626 C601.4596143446922,225.46296764656256 598.1958143446923,228.72696764656257 594.1696143446923,228.72696764656257 H580.0172543446922 C575.9911043446923,228.72696764656257 572.7272643446922,225.46296764656256 572.7272643446922,221.4369676465626 L572.7272643446922,154.4039676465626 zM693.1510143446922,63.51026764656257 C689.1250143446922,63.51026764656257 685.8610143446922,66.77416764656257 685.8610143446922,70.80026764656259 L685.8610143446922,221.4369676465626 C685.8610143446922,225.46296764656256 689.1250143446922,228.72696764656257 693.1510143446922,228.72696764656257 H707.3030143446922 C711.3300143446922,228.72696764656257 714.5930143446922,225.46296764656256 714.5930143446922,221.4369676465626 L714.5930143446922,70.80026764656259 C714.5930143446922,66.77416764656257 711.3300143446922,63.51026764656257 707.3030143446922,63.51026764656257 L693.1510143446922,63.51026764656257 z" fill="#B3D9FF" class="" id="svg_3"/><path opacity="0.3" fill-rule="evenodd" clip-rule="evenodd" d="M1083.5404645552635,63.09091256072236 C1083.5404645552635,58.12035256072235 1087.5694645552635,54.09091556072235 1092.5404645552635,54.09091556072235 L1103.2724645552635,54.09091556072235 C1108.2434645552635,54.09091556072235 1112.2724645552635,58.12035256072235 1112.2724645552635,63.09091256072236 L1112.2724645552635,256.09060256072235 C1112.2724645552635,261.06160256072235 1108.2434645552635,265.09060256072235 1103.2724645552635,265.09060256072235 H1092.5404645552635 C1087.5694645552635,265.09060256072235 1083.5404645552635,261.06160256072235 1083.5404645552635,256.09060256072235 L1083.5404645552635,63.09091256072236 zM1027.8714645552636,140.72300256072236 C1027.8714645552636,135.75240256072237 1031.9004645552636,131.72300256072236 1036.8714645552636,131.72300256072236 H1047.6034645552636 C1052.5744645552636,131.72300256072236 1056.6034645552636,135.75240256072237 1056.6034645552636,140.72300256072236 L1056.6034645552636,256.09060256072235 C1056.6034645552636,261.06160256072235 1052.5744645552636,265.09060256072235 1047.6034645552636,265.09060256072235 H1036.8714645552636 C1031.9004645552636,265.09060256072235 1027.8714645552636,261.06160256072235 1027.8714645552636,256.09060256072235 L1027.8714645552636,140.72300256072236 zM922.0274645552636,58.07204256072235 C918.0013645552635,58.07204256072235 914.7374645552635,61.335882560722354 914.7374645552635,65.36200256072235 L914.7374645552635,257.8006025607224 C914.7374645552635,261.82660256072234 918.0013645552635,265.09060256072235 922.0274645552636,265.09060256072235 H936.1798645552635 C940.2060645552635,265.09060256072235 943.4698645552635,261.82660256072234 943.4698645552635,257.8006025607224 L943.4698645552635,65.36200256072235 C943.4698645552635,61.33589256072236 940.2060645552635,58.07204256072235 936.1798645552635,58.07204256072235 L922.0274645552636,58.07204256072235 zM857.2727145552635,190.76760256072237 C857.2727145552635,186.74160256072236 860.5365545552636,183.47760256072235 864.5627145552635,183.47760256072235 H878.7150645552636 C882.7412645552636,183.47760256072235 886.0050645552635,186.74160256072236 886.0050645552635,190.76760256072237 L886.0050645552635,257.8006025607224 C886.0050645552635,261.82660256072234 882.7412645552636,265.09060256072235 878.7150645552636,265.09060256072235 H864.5627045552635 C860.5365545552636,265.09060256072235 857.2727145552635,261.82660256072234 857.2727145552635,257.8006025607224 L857.2727145552635,190.76760256072237 zM977.6964645552634,99.87390256072234 C973.6704645552635,99.87390256072234 970.4064645552635,103.13780256072235 970.4064645552635,107.16390256072238 L970.4064645552635,257.8006025607224 C970.4064645552635,261.82660256072234 973.6704645552635,265.09060256072235 977.6964645552634,265.09060256072235 H991.8484645552635 C995.8754645552635,265.09060256072235 999.1384645552635,261.82660256072234 999.1384645552635,257.8006025607224 L999.1384645552635,107.16390256072238 C999.1384645552635,103.13780256072235 995.8754645552635,99.87390256072234 991.8484645552635,99.87390256072234 L977.6964645552634,99.87390256072234 z" fill="#B3D9FF" class="" id="svg_4"/></g></svg>