<svg width="291" height="56" viewBox="0 0 291 56" fill="none" xmlns="http://www.w3.org/2000/svg">
<path fill-rule="evenodd" clip-rule="evenodd" d="M75.3091 7.0376L66.4863 42.3953H72.2797L74.2114 34.8076H87.9423L89.874 42.3953H95.7204L86.8445 7.0376H75.3091ZM75.3622 29.7481L79.7993 11.8381H82.4092L86.7949 29.7481H75.3622Z" fill="white"/>
<path fill-rule="evenodd" clip-rule="evenodd" d="M122.552 45.9055C122.552 51.5476 118.428 54.3703 110.179 54.3703C106.213 54.3703 103.271 53.8352 101.358 52.7701C99.4434 51.7033 98.4861 49.7594 98.4861 46.9384C98.4861 45.665 98.7995 44.5729 99.4262 43.6619C100.051 42.7492 101.062 41.7603 102.454 40.6935C101.307 39.9366 100.731 38.6819 100.731 36.9243C100.731 36.2368 101.2 35.1192 102.141 33.5681L102.61 32.7943C100.104 31.3161 98.8526 28.7338 98.8526 25.0526C98.8526 21.9555 99.791 19.6848 101.671 18.2387C103.552 16.7944 106.091 16.0713 109.294 16.0713C110.825 16.0713 112.337 16.244 113.834 16.5878L114.616 16.7419L122.709 16.5353V21.0767L118.377 20.8193C119.317 22.0249 119.786 23.4355 119.786 25.0526C119.786 28.4256 118.925 30.7556 117.202 32.0459C115.478 33.3379 112.791 33.983 109.136 33.983C108.23 33.983 107.465 33.9153 106.838 33.7764C106.352 34.9465 106.107 35.8507 106.107 36.4874C106.107 37.1241 106.43 37.5643 107.073 37.8031C107.716 38.0452 109.273 38.1824 111.746 38.2162C115.887 38.2518 118.723 38.8021 120.255 39.8672C121.786 40.9323 122.552 42.9456 122.552 45.9055ZM104.072 46.4219C104.072 47.6259 104.559 48.4861 105.535 49.0025C106.507 49.519 108.179 49.7764 110.547 49.7764C114.757 49.7764 116.865 48.5894 116.865 46.2154C116.865 44.8726 116.49 44.0209 115.743 43.6602C114.993 43.2978 113.505 43.0997 111.28 43.0658L106.165 42.756C105.399 43.374 104.858 43.9497 104.547 44.4848C104.23 45.0182 104.072 45.6634 104.072 46.4219ZM109.345 29.6448C107.639 29.6448 106.403 29.2756 105.637 28.5357C104.872 27.7957 104.49 26.6341 104.488 25.0492C104.488 21.9877 106.09 20.4553 109.292 20.4553C110.996 20.4553 112.232 20.8261 112.998 21.5661C113.762 22.306 114.145 23.4676 114.145 25.0509C114.145 26.6341 113.774 27.7957 113.024 28.5357C112.277 29.2739 111.049 29.6448 109.345 29.6448Z" fill="white"/>
<path d="M127.825 42.3953V7.0376H133.62V42.3953H127.825Z" fill="white"/>
<path fill-rule="evenodd" clip-rule="evenodd" d="M141.865 42.3953H154.238C159.982 42.3953 163.844 40.7257 165.829 37.3865C166.835 35.7017 167.541 33.8154 167.942 31.7343C168.342 29.6549 168.543 27.115 168.543 24.1213C168.543 18.2371 167.532 13.9192 165.513 11.1659C163.494 8.41425 159.737 7.0376 154.238 7.0376H141.865V42.3953ZM160.92 14.8826C161.999 16.7757 162.539 19.8575 162.539 24.1229C162.539 26.2565 162.443 28.0446 162.251 29.489C162.061 30.9334 161.686 32.2948 161.129 33.5665C159.984 36.081 157.686 37.3357 154.24 37.3357H147.662V12.043H154.24C157.614 12.043 159.842 12.9895 160.92 14.8826Z" fill="white"/>
<path fill-rule="evenodd" clip-rule="evenodd" d="M182.006 7.14917L178.172 20.8464H179.704L180.713 17.324H186.689L187.699 20.8464H189.232L185.398 7.14917H182.006ZM181.059 15.9585L183.177 8.45576H184.228L186.347 15.9585H181.059Z" fill="white"/>
<path fill-rule="evenodd" clip-rule="evenodd" d="M195.087 25.4986C193.472 25.4986 192.345 25.2831 191.706 24.8554C191.066 24.4261 190.746 23.6448 190.746 22.51C190.746 21.9695 190.867 21.53 191.11 21.1933C191.353 20.8565 191.763 20.4777 192.342 20.0551C191.964 19.8042 191.777 19.3496 191.777 18.6896C191.777 18.4656 191.945 18.0497 192.282 17.4419L192.462 17.1254C191.399 16.6505 190.867 15.6554 190.867 14.1367C190.867 11.8805 192.124 10.7524 194.641 10.7524C195.286 10.7524 195.886 10.818 196.437 10.9511L196.741 11.01L199.727 10.9309V12.197L197.811 12.1566C198.255 12.5927 198.477 13.2527 198.477 14.1367C198.477 15.3759 198.164 16.2448 197.538 16.7381C196.913 17.2331 195.925 17.4806 194.581 17.4806C194.217 17.4806 193.889 17.4537 193.592 17.4015C193.35 17.9824 193.228 18.3579 193.228 18.5296C193.228 18.9388 193.356 19.193 193.612 19.2923C193.868 19.3917 194.643 19.4405 195.934 19.4405C197.227 19.4405 198.156 19.6375 198.721 20.0332C199.286 20.4289 199.567 21.2 199.567 22.3483C199.567 24.4497 198.073 25.4986 195.087 25.4986ZM192.242 22.3904C192.242 23.0892 192.44 23.5741 192.838 23.8452C193.233 24.1163 193.968 24.251 195.038 24.251C196.107 24.251 196.873 24.1062 197.338 23.8149C197.804 23.5253 198.034 23.0404 198.034 22.3601C198.034 21.6799 197.866 21.2404 197.529 21.0434C197.194 20.8448 196.533 20.7471 195.553 20.7471L193.372 20.6478C192.927 20.9643 192.627 21.2404 192.474 21.4795C192.319 21.7169 192.242 22.02 192.242 22.3904ZM192.917 15.7986C192.561 15.4702 192.383 14.9146 192.383 14.1367C192.383 13.3588 192.56 12.7998 192.917 12.4631C193.272 12.1263 193.861 11.9579 194.682 11.9579C195.503 11.9579 196.088 12.1229 196.437 12.453C196.787 12.7847 196.962 13.342 196.962 14.1266C196.962 14.9112 196.787 15.4686 196.437 15.7986C196.088 16.1286 195.505 16.2936 194.682 16.2936C193.863 16.2936 193.272 16.1286 192.917 15.7986Z" fill="white"/>
<path fill-rule="evenodd" clip-rule="evenodd" d="M209.217 19.5601L208.632 19.619C207.595 19.6981 206.575 19.7385 205.575 19.7368C204.573 19.7368 203.869 19.4725 203.465 18.9455C203.06 18.4168 202.859 17.6052 202.859 16.5108H209.52L209.6 15.3827C209.6 13.7882 209.265 12.6163 208.591 11.8704C207.919 11.1262 206.903 10.7524 205.544 10.7524C202.73 10.7524 201.326 12.4883 201.326 15.9585C201.326 17.6995 201.626 18.9825 202.234 19.8076C202.84 20.6326 203.869 21.0451 205.321 21.0451C206.412 21.0451 207.723 20.939 209.259 20.7286L209.217 19.5601ZM207.49 12.751C207.888 13.2527 208.086 14.1098 208.086 15.3238H202.838C202.852 14.1637 203.082 13.3201 203.534 12.7914C203.985 12.2644 204.658 12 205.553 12C206.448 12 207.093 12.2509 207.49 12.751Z" fill="white"/>
<path d="M213.677 20.8464H212.164V10.9494H213.656V11.6431C214.746 11.0487 215.789 10.7524 216.785 10.7524C218.131 10.7524 219.036 11.1077 219.499 11.8216C219.965 12.5338 220.197 13.8 220.197 15.6218V20.8481H218.703V15.6622C218.703 14.2899 218.564 13.3504 218.289 12.8419C218.012 12.3334 217.423 12.0792 216.524 12.0792C216.093 12.0792 215.638 12.1415 215.16 12.2678C214.683 12.3923 214.317 12.5153 214.06 12.6331L213.675 12.8116V20.8464H213.677Z" fill="white"/>
<path d="M222.599 12.2762V10.9494H230.085V12.2762L224.434 19.5197H230.085V20.8465H222.599V19.5197L228.25 12.2762H222.599Z" fill="white"/>
<path fill-rule="evenodd" clip-rule="evenodd" d="M232.591 6.99091V8.71338H234.103V6.99091H232.591ZM232.591 10.9494V20.8465H234.103V10.9494H232.591Z" fill="white"/>
<path fill-rule="evenodd" clip-rule="evenodd" d="M244.339 19.0044V13.938C244.339 12.8436 244.078 12.0388 243.565 11.5235C243.046 11.01 242.217 10.7524 241.073 10.7524C239.929 10.7524 238.616 10.8989 237.137 11.1885L237.198 12.3166L237.823 12.2576C238.98 12.1246 240.096 12.059 241.173 12.059C241.684 12.059 242.088 12.2038 242.383 12.4934C242.68 12.783 242.828 13.2645 242.828 13.938V14.7883L239.658 15.0847C238.595 15.1907 237.816 15.4719 237.318 15.9265C236.818 16.3828 236.569 17.0917 236.569 18.0548C236.569 19.0179 236.813 19.7571 237.297 20.2723C237.781 20.7858 238.487 21.0434 239.416 21.0434C240.627 21.0434 241.837 20.7791 243.048 20.2521C243.585 20.7791 244.387 21.0434 245.45 21.0434L245.51 19.8749C244.77 19.7823 244.378 19.4927 244.339 19.0044ZM239.656 19.7975C238.633 19.7975 238.121 19.1896 238.121 17.9757C238.121 17.4217 238.255 17.0008 238.527 16.7095C238.798 16.4199 239.234 16.2481 239.84 16.1942L242.826 15.9164V19.1829L242.361 19.3412C241.475 19.6459 240.572 19.7975 239.656 19.7975Z" fill="white"/>
<path fill-rule="evenodd" clip-rule="evenodd" d="M252.169 10.9494V25.2393H253.682V20.8246C254.369 20.9694 255.121 21.0418 255.943 21.0418C257.518 21.0418 258.646 20.6427 259.324 19.8446C260.004 19.0465 260.344 17.7298 260.344 15.8962C260.344 14.0626 260.054 12.7476 259.475 11.9478C258.897 11.1497 257.968 10.7507 256.69 10.7507C255.694 10.7507 254.685 11.0555 253.661 11.6616V10.9494H252.169ZM255.165 12.2762C255.631 12.1432 256.065 12.0775 256.469 12.0775C257.235 12.0775 257.817 12.3688 258.212 12.948C258.608 13.5306 258.807 14.5055 258.807 15.8777C258.807 17.25 258.588 18.24 258.151 18.8462C257.714 19.454 256.951 19.7571 255.861 19.7571C255.363 19.7571 254.637 19.6847 253.68 19.5399V12.8705L254.065 12.6719C254.336 12.5405 254.7 12.4075 255.165 12.2762Z" fill="white"/>
<path fill-rule="evenodd" clip-rule="evenodd" d="M270.456 19.5601L269.871 19.619C268.834 19.6981 267.815 19.7385 266.814 19.7368C265.811 19.7368 265.107 19.4725 264.704 18.9455C264.3 18.4168 264.1 17.6052 264.1 16.5108H270.76L270.841 15.3827C270.841 13.7882 270.506 12.6163 269.831 11.8704C269.16 11.1262 268.143 10.7524 266.785 10.7524C263.971 10.7524 262.566 12.4883 262.566 15.9585C262.566 17.6995 262.867 18.9825 263.475 19.8076C264.081 20.6326 265.109 21.0451 266.562 21.0451C267.652 21.0451 268.964 20.939 270.499 20.7286L270.456 19.5601ZM268.729 12.751C269.127 13.2527 269.325 14.1098 269.325 15.3238H264.077C264.089 14.1637 264.321 13.3201 264.773 12.7914C265.224 12.2644 265.897 12 266.792 12C267.687 12 268.332 12.2509 268.729 12.751Z" fill="white"/>
<path d="M273.403 20.8464V10.9494H274.895V12.2947C276.068 11.5033 277.297 10.9814 278.588 10.7305V12.2341C278.024 12.3402 277.435 12.5052 276.823 12.7291C276.212 12.953 275.743 13.1517 275.42 13.3235L274.916 13.5811V20.8448H273.403V20.8464Z" fill="white"/>
<path d="M179.519 41.7697V27.5588H181V41.7697H179.519Z" fill="white"/>
<path d="M183.388 32.0915L184.257 27.7559H185.817L184.553 32.0915H183.388Z" fill="white"/>
<path d="M188.089 41.7697V28.0724H189.61V41.7697H188.089Z" fill="white"/>
<path d="M197.606 33.1607H194.466V37.892C194.466 39.0269 194.548 39.7711 194.713 40.128C194.879 40.485 195.27 40.6618 195.889 40.6618L197.646 40.5439L197.745 41.7714C196.863 41.9162 196.192 41.9886 195.731 41.9886C194.704 41.9886 193.993 41.7394 193.599 41.2376C193.205 40.7359 193.006 39.7795 193.006 38.3685V33.1624H191.605V31.8743H193.006V28.8469H194.466V31.8743H197.606V33.1607Z" fill="white"/>
<path fill-rule="evenodd" clip-rule="evenodd" d="M206.196 39.9293V34.8613C206.196 33.7668 205.942 32.9603 205.439 32.4451C204.933 31.9298 204.119 31.6739 203.001 31.6739C201.882 31.6739 200.598 31.8187 199.149 32.11L199.209 33.2381L199.819 33.1792C200.953 33.0479 202.044 32.9805 203.097 32.9805C203.598 32.9805 203.992 33.127 204.281 33.4166C204.571 33.7062 204.717 34.1894 204.717 34.8613V35.7132L201.616 36.0096C200.574 36.114 199.811 36.3951 199.324 36.8514C198.837 37.3077 198.594 38.0166 198.594 38.9797C198.594 39.9428 198.83 40.6803 199.305 41.1955C199.778 41.7107 200.471 41.9667 201.378 41.9667C202.562 41.9667 203.748 41.7023 204.933 41.1753C205.457 41.704 206.241 41.9667 207.281 41.9667L207.341 40.7998C206.616 40.7072 206.234 40.4176 206.196 39.9293ZM201.614 40.7207C200.613 40.7207 200.113 40.1145 200.113 38.9006C200.113 38.3466 200.245 37.924 200.509 37.6327C200.771 37.3431 201.199 37.1697 201.792 37.1175L204.715 36.8413V40.1061L204.259 40.2644C203.39 40.5692 202.507 40.7207 201.614 40.7207Z" fill="white"/>
<path d="M209.038 41.7697V27.5588H210.519V41.7697H209.038Z" fill="white"/>
<path fill-rule="evenodd" clip-rule="evenodd" d="M213.284 27.9141V29.6349H214.765V27.9141H213.284ZM213.284 31.8726V41.7697H214.765V31.8726H213.284Z" fill="white"/>
<path fill-rule="evenodd" clip-rule="evenodd" d="M224.383 39.9293V34.8613C224.383 33.7668 224.13 32.9603 223.626 32.4451C223.12 31.9298 222.306 31.6739 221.188 31.6739C220.069 31.6739 218.785 31.8187 217.336 32.11L217.396 33.2381L218.007 33.1792C219.14 33.0479 220.232 32.9805 221.284 32.9805C221.783 32.9805 222.179 33.127 222.469 33.4166C222.758 33.7062 222.904 34.1894 222.904 34.8613V35.7132L219.803 36.0096C218.761 36.114 217.998 36.3951 217.511 36.8514C217.024 37.3077 216.781 38.0166 216.781 38.9797C216.781 39.9428 217.018 40.6803 217.492 41.1955C217.965 41.7107 218.658 41.9667 219.565 41.9667C220.749 41.9667 221.935 41.7023 223.12 41.1753C223.646 41.704 224.43 41.9667 225.468 41.9667L225.528 40.7998C224.803 40.7072 224.423 40.4176 224.383 39.9293ZM219.803 40.7207C218.802 40.7207 218.301 40.1145 218.301 38.9006C218.301 38.3466 218.433 37.924 218.697 37.6327C218.96 37.3431 219.388 37.1697 219.981 37.1175L222.904 36.8413V40.1061L222.448 40.2644C221.579 40.5692 220.696 40.7207 219.803 40.7207Z" fill="white"/>
<path fill-rule="evenodd" clip-rule="evenodd" d="M231.511 41.7697H236.388C237.363 41.7697 238.193 41.5912 238.877 41.2342C240.587 40.3368 241.443 38.1664 241.443 34.7232C241.443 33.0748 241.234 31.7413 240.812 30.7243C240.087 28.9564 238.613 28.0724 236.388 28.0724H231.511V41.7697ZM238.128 29.8151C239.297 30.4616 239.883 32.0982 239.883 34.7232C239.883 38.5234 238.719 40.4227 236.388 40.4227H233.031V29.4177H236.388C237.073 29.4177 237.653 29.5507 238.128 29.8151Z" fill="white"/>
<path fill-rule="evenodd" clip-rule="evenodd" d="M243.794 27.9141V29.6349H245.275V27.9141H243.794ZM243.794 31.8726V41.7697H245.275V31.8726H243.794Z" fill="white"/>
<path fill-rule="evenodd" clip-rule="evenodd" d="M251.733 46.4218C250.152 46.4218 249.052 46.2063 248.424 45.7787C247.801 45.3493 247.487 44.5664 247.487 43.4315C247.487 42.891 247.605 42.4516 247.842 42.1165C248.08 41.7798 248.481 41.3992 249.047 40.9783C248.676 40.7274 248.493 40.2711 248.493 39.6111C248.493 39.3872 248.659 38.9713 248.987 38.3651L249.165 38.0486C248.124 37.5738 247.605 36.577 247.605 35.0599C247.605 32.8037 248.836 31.6756 251.297 31.6756C251.928 31.6756 252.514 31.7413 253.053 31.8726L253.349 31.9315L256.272 31.8524V33.1203L254.397 33.0815C254.83 33.5159 255.048 34.176 255.048 35.0599C255.048 36.3008 254.741 37.168 254.129 37.663C253.519 38.158 252.554 38.4055 251.236 38.4055C250.881 38.4055 250.559 38.3786 250.269 38.3247C250.032 38.9073 249.914 39.2811 249.914 39.4545C249.914 39.862 250.037 40.1179 250.289 40.2156C250.538 40.3149 251.297 40.3637 252.561 40.3637C253.824 40.3637 254.733 40.5624 255.285 40.9564C255.838 41.3521 256.114 42.1249 256.114 43.2732C256.116 45.3729 254.655 46.4218 251.733 46.4218ZM248.949 43.3137C248.949 44.0124 249.143 44.4973 249.532 44.7684C249.921 45.0378 250.637 45.1725 251.685 45.1725C252.73 45.1725 253.481 45.0277 253.934 44.7381C254.39 44.4468 254.614 43.9619 254.614 43.2833C254.614 42.6031 254.45 42.1653 254.121 41.9667C253.793 41.7697 253.147 41.6703 252.185 41.6703L250.053 41.571C249.619 41.8875 249.326 42.1653 249.174 42.4011C249.023 42.6402 248.949 42.9432 248.949 43.3137ZM249.611 36.7218C249.261 36.3935 249.086 35.8395 249.086 35.0599C249.086 34.282 249.259 33.7247 249.611 33.388C249.959 33.0529 250.535 32.8828 251.339 32.8828C252.142 32.8828 252.715 33.0495 253.056 33.3779C253.399 33.7079 253.57 34.2652 253.57 35.0498C253.57 35.8361 253.399 36.3935 253.056 36.7218C252.715 37.0518 252.142 37.2168 251.339 37.2168C250.535 37.2168 249.959 37.0518 249.611 36.7218Z" fill="white"/>
<path fill-rule="evenodd" clip-rule="evenodd" d="M257.873 27.9141V29.6349H259.354V27.9141H257.873ZM257.873 31.8726V41.7697H259.354V31.8726H257.873Z" fill="white"/>
<path d="M267.116 33.1607H263.975V37.892C263.975 39.0269 264.058 39.7711 264.222 40.128C264.388 40.485 264.779 40.6618 265.398 40.6618L267.155 40.5439L267.254 41.7714C266.372 41.9162 265.701 41.9886 265.24 41.9886C264.214 41.9886 263.502 41.7394 263.108 41.2376C262.714 40.7359 262.515 39.7795 262.515 38.3685V33.1624H261.114V31.8743H262.515V28.8469H263.977V31.8743H267.117V33.1607H267.116Z" fill="white"/>
<path fill-rule="evenodd" clip-rule="evenodd" d="M275.705 39.9293V34.8613C275.705 33.7668 275.45 32.9603 274.948 32.4451C274.442 31.9298 273.628 31.6739 272.51 31.6739C271.391 31.6739 270.107 31.8187 268.658 32.11L268.718 33.2381L269.329 33.1792C270.462 33.0479 271.554 32.9805 272.606 32.9805C273.107 32.9805 273.501 33.127 273.79 33.4166C274.08 33.7062 274.226 34.1894 274.226 34.8613V35.7132L271.125 36.0096C270.084 36.114 269.32 36.3951 268.833 36.8514C268.346 37.3077 268.103 38.0166 268.103 38.9797C268.103 39.9428 268.339 40.6803 268.814 41.1955C269.287 41.7107 269.98 41.9667 270.887 41.9667C272.071 41.9667 273.257 41.7023 274.442 41.1753C274.966 41.704 275.75 41.9667 276.79 41.9667L276.85 40.7998C276.125 40.7072 275.743 40.4176 275.705 39.9293ZM271.123 40.7207C270.122 40.7207 269.622 40.1145 269.622 38.9006C269.622 38.3466 269.754 37.924 270.018 37.6327C270.28 37.3431 270.708 37.1697 271.302 37.1175L274.224 36.8413V40.1061L273.768 40.2644C272.899 40.5692 272.016 40.7207 271.123 40.7207Z" fill="white"/>
<path d="M278.547 41.7697V27.5588H280.028V41.7697H278.547Z" fill="white"/>
<path fill-rule="evenodd" clip-rule="evenodd" d="M290.08 40.4833L289.508 40.5422C288.495 40.6213 287.497 40.6618 286.513 40.6618C285.533 40.6618 284.843 40.3957 284.449 39.8687C284.053 39.3434 283.856 38.5301 283.856 37.4357H290.373L290.452 36.3076C290.452 34.7114 290.125 33.5395 289.467 32.7936C288.807 32.0494 287.814 31.6756 286.484 31.6756C283.734 31.6756 282.358 33.4115 282.358 36.8817C282.358 38.6227 282.654 39.9074 283.248 40.7308C283.841 41.5558 284.847 41.9667 286.27 41.9667C287.336 41.9667 288.618 41.8606 290.12 41.6501L290.08 40.4833ZM288.392 33.6759C288.781 34.1776 288.975 35.033 288.975 36.2487V36.2503H283.842C283.853 35.0902 284.081 34.2433 284.523 33.7163C284.962 33.1876 285.622 32.9233 286.496 32.9233C287.37 32.9233 288.004 33.1741 288.392 33.6759Z" fill="white"/>
<path d="M38.1113 37.1589C38.3625 37.1589 38.717 37.2849 38.6292 37.4941C38.5414 37.7034 38.4416 38.0574 38.2403 38.0812C38.0442 38.105 37.657 37.8276 37.657 37.5792C37.657 37.3325 37.86 37.1589 38.1113 37.1589Z" fill="white"/>
<path d="M16.237 43.9362C16.5141 44.0723 16.7894 44.0723 17.0664 43.9362L16.8582 43.6129L16.385 43.2045C16.1269 43.0701 15.9204 43.1943 15.7621 43.5857L16.237 43.9362Z" fill="white"/>
<path d="M30.3936 53.4224C30.3145 53.5602 30.3644 53.6963 30.5416 53.8325C30.7189 53.9703 30.8668 53.9992 30.9839 53.9209L30.3936 53.4224Z" fill="white"/>
<path fill-rule="evenodd" clip-rule="evenodd" d="M49.2289 24.3718C49.6041 24.6457 49.7125 25.3093 49.5542 26.3643C49.9895 27.0092 49.9207 27.7323 49.3528 28.5372C49.5696 28.7328 49.6763 28.9762 49.6763 29.2705C49.6763 29.5632 49.6058 29.7912 49.4544 29.9563C49.3064 30.123 49.0448 30.3238 48.668 30.5586C48.7695 31.1235 48.7798 31.6527 48.7007 32.1411C48.6009 32.6889 48.1569 33.4291 47.3671 34.3667C47.5409 34.9333 47.4634 35.4523 47.1279 35.9202C46.2813 36.9156 45.6687 37.518 45.2936 37.7341C45.4915 38.1237 45.4915 38.4266 45.2936 38.6427C44.0305 39.4628 43.0033 39.9035 42.2134 39.9597C41.5613 40.0363 40.959 40.3119 40.4066 40.7798L38.6893 42.8302C38.5706 43.1603 38.383 43.3747 38.1266 43.4734C38.1266 43.8665 37.9976 44.1047 37.7412 44.1915C37.4848 44.2816 37.1682 44.3548 36.7931 44.411C36.2407 44.821 35.7176 45.1733 35.2237 45.4659C35.3631 46.1278 35.5885 46.5992 35.9052 46.8714C37.3489 47.1266 38.2764 47.1828 38.6893 47.0467C39.2038 46.7931 40.1778 46.0989 41.6198 44.9674C41.7196 44.5182 41.828 43.6504 41.945 42.3623C41.945 42.1071 41.8383 41.8842 41.6198 41.6885C41.3427 41.3754 41.3341 41.081 41.5905 40.8088C41.766 40.5961 42.2909 40.38 43.1616 40.1656C43.3956 40.1264 43.4851 40.2609 43.4266 40.574L43.3956 41.2767C43.4558 41.4145 43.6709 41.5013 44.0478 41.5404C44.8376 41.4622 45.5483 41.4537 46.1798 41.5115C46.536 41.5472 46.7614 41.6374 46.8612 41.7718C47.0986 42.0084 47.1864 42.2568 47.1262 42.5205C47.0677 42.7843 47.078 43.0803 47.1554 43.4138C47.2157 43.7661 47.3602 44.1949 47.5856 44.7019C47.8145 45.209 48.0726 45.6003 48.3686 45.8743C48.0726 46.5583 47.6785 47.1607 47.1847 47.6882C43.8481 50.0329 41.8504 51.4435 41.1896 51.9199C40.5271 52.3981 39.9988 52.5971 39.6031 52.5206C36.4025 52.3045 33.7301 52.0118 31.5775 51.6392L32.0507 51.9914C32.782 52.5563 33.5013 53.0055 34.2119 53.339L34.7746 53.4854L35.0431 53.7474C35.0809 54.0009 34.9329 54.2562 34.5974 54.5097L33.9452 54.7139C33.4118 55.1648 32.8388 55.3792 32.2279 55.3588L31.8132 55.2124L31.3985 54.4518C30.7859 54.3344 30.4125 54.1881 30.2731 54.0128C30.0374 53.778 29.9273 53.5738 29.9479 53.3969C28.21 51.8553 26.9968 51.0062 26.3051 50.8479L25.5359 51.2886C25.2382 51.4248 24.8923 51.4435 24.4983 51.3465C23.6878 50.9177 23.2645 50.751 23.2249 50.8479L22.1873 51.5524C22.0479 51.6307 21.9602 51.8263 21.9206 52.1377C21.7227 52.4882 21.2891 52.7248 20.618 52.8422L19.7593 53.4837L18.572 54.656L18.4567 54.7717C18.338 55.2397 18.1005 55.5425 17.7443 55.6787C17.3692 55.7961 16.9752 55.7961 16.5605 55.6787L15.4644 55.0338L15.0789 54.5948C14.764 54.4961 14.5472 54.3208 14.4285 54.0673C14.2719 53.5024 14.3992 53.1961 14.8139 53.1587C15.1099 53.2965 15.781 52.9749 16.8272 52.1939L16.7979 51.874C13.1465 52.4202 11.1711 52.6839 10.8751 52.6652C9.45377 52.056 7.96359 51.2971 6.40459 50.3783C5.08134 49.6194 4.15901 49.0528 3.6359 48.6819C3.1128 48.3109 2.72391 47.9961 2.46751 47.7426C1.87385 47.1573 1.50733 46.7285 1.35935 46.4545C1.21137 46.1823 1.18211 45.9764 1.26127 45.8386C1.85321 44.9418 2.23005 44.1795 2.36943 43.5568C2.40901 43.3985 2.4417 43.2148 2.42105 42.9987C2.26447 42.415 2.31437 42.0237 2.483 41.828C2.64991 41.634 2.95621 41.5353 3.2126 41.5353L6.21359 41.4775V40.7101L6.21703 41.3022L6.58011 40.7169L6.84511 40.8326L6.40115 41.7123C6.34093 41.8484 6.21359 41.908 6.0157 41.8893C5.56143 41.8484 4.67352 41.8671 3.35026 41.9454C2.81683 41.9641 2.65852 42.3078 2.87533 42.9731C2.91491 43.128 2.89598 43.3424 2.81683 43.6146C2.63959 44.2595 2.29372 45.0031 1.78093 45.842C1.6209 46.0189 1.93752 46.526 2.72735 47.3649C3.41909 48.008 4.63222 48.8503 6.37018 49.8832C8.81709 51.2478 10.3004 52.0016 10.8132 52.1377C12.8264 51.9046 14.869 51.6017 16.9425 51.2308C17.7719 51.0538 18.6994 50.8547 19.7267 50.6301C20.7522 50.4038 22.4403 49.861 24.7908 49.0052C24.9474 48.966 24.9973 48.7601 24.9388 48.3909C24.8201 47.6694 24.5035 46.8289 23.9907 45.8726C23.4572 45.9492 22.8756 45.9985 22.2424 46.0189C21.6092 46.0376 21.086 46.0768 20.6713 46.1346C19.546 46.2708 18.4602 46.4375 17.414 46.6332L14.8673 47.1011C13.1878 47.3359 11.8869 47.4618 10.9577 47.4823C10.0096 46.7982 8.67771 45.9202 6.9604 44.8466C5.8746 44.1421 4.62017 43.4394 3.19883 42.7366C3.00267 42.5614 2.97169 42.398 3.10935 42.2415C3.28659 42.1411 3.68237 42.0934 4.29323 42.0934C4.57027 42.1139 4.67868 42.1802 4.62017 42.2993C4.55995 42.415 4.44294 42.478 4.26398 42.4899C4.08674 42.4967 3.93015 42.5103 3.79249 42.5324C4.9953 43.0582 6.12239 43.664 7.16861 44.3463L7.1428 42.8234C7.12215 42.2789 7.24604 41.7872 7.50243 41.3601C7.56094 41.0283 7.18754 40.7543 6.35813 40.5399C6.24456 40.5025 6.20671 40.5314 6.20671 40.6216V40.511C6.20671 40.4476 6.19386 40.393 6.18309 40.3474C6.16411 40.2668 6.1516 40.2138 6.22736 40.1877C6.50268 40.1298 6.77972 40.2575 7.43188 40.5706C7.86723 40.8428 8.05479 41.1457 7.99457 41.4775C7.73818 41.8893 7.62977 42.398 7.66935 43.0021L7.75883 44.7581C9.16124 45.6956 10.247 46.4375 11.0162 46.9854C11.8456 46.9633 12.7542 46.8867 13.7419 46.7506L14.3046 45.1682C13.8107 44.8159 13.2583 44.348 12.6458 43.7627L12.2018 43.8205C11.7665 43.8205 11.4412 43.5857 11.2244 43.1178C10.7099 43.1552 10.2161 42.8149 9.74285 42.0917C8.9926 41.2325 8.37141 40.414 7.87756 39.6313C7.54201 39.7283 7.17549 39.6738 6.78144 39.4713C6.38739 39.2672 5.97096 38.949 5.53733 38.5202L3.37607 36.0019C1.9358 34.2663 0.918838 32.0968 0.325179 29.5019C0.206447 28.7005 0.137617 27.9382 0.118688 27.2168C0.0997601 26.4936 0.0997601 26.0461 0.118688 25.8708C0.197843 25.4199 0.394009 25.1357 0.710627 25.02C1.36279 24.8074 2.26102 25.9576 3.40704 28.4742C3.99726 29.861 4.76988 31.913 5.71629 34.6253C5.71629 34.1948 5.75587 33.7677 5.83503 33.3372C5.39968 32.5358 5.0538 31.668 4.79741 30.7288C4.69933 30.4361 4.57543 30.2421 4.42745 30.1451C4.27947 30.0464 4.2158 29.8746 4.23473 29.6313C4.25537 29.3862 4.18654 29.0306 4.02824 28.5644C3.73227 27.5656 3.49652 26.8543 3.31757 26.4221C3.04052 26.3251 2.74456 25.9848 2.42794 25.3995C2.11304 24.8108 1.79642 23.9038 1.48152 22.6736C1.22341 21.4451 1.14426 20.2931 1.24406 19.2177C1.40065 17.54 1.63295 16.1924 1.93924 15.1783C2.24554 14.1624 2.60173 13.2827 3.00611 12.5408C3.41049 11.7973 3.7598 11.2272 4.05749 10.8274C4.35346 10.4275 4.65975 10.0123 4.97465 9.58354C5.29127 9.15305 5.60616 8.83145 5.92278 8.61706C6.25661 8.50135 6.47342 8.56942 6.57323 8.82295C6.75046 9.44572 6.77111 10.1995 6.63345 11.0775C6.88985 10.2965 7.36994 9.23302 8.07028 7.88539C8.77063 6.53776 9.57594 5.40622 10.4845 4.48739C11.3139 3.74551 11.8869 3.33543 12.2018 3.25716C12.4978 3.18059 12.6922 3.22823 12.78 3.4052C12.8695 3.58046 12.866 3.87483 12.7662 4.2832C12.4307 5.14078 12.1158 5.89457 11.8181 6.53776L11.2261 7.88539C11.72 6.88998 12.3756 5.9286 13.1947 4.99955C14.0138 4.07391 14.9361 3.28779 15.9634 2.6429C16.97 1.94016 18.147 1.42289 19.4875 1.09108C20.7711 0.857969 21.5403 0.915822 21.7984 1.26804C21.7778 1.69684 21.5919 2.10861 21.2358 2.49827C21.9068 2.51698 22.3129 2.61738 22.4506 2.79094C22.3904 3.53281 21.9671 4.24576 21.1772 4.92979C20.427 5.53554 19.6372 6.01198 18.8078 6.3659L17.6136 6.99207C17.4156 7.08254 17.213 7.17728 17.0046 7.27475C16.4017 7.55677 15.7497 7.8617 15.017 8.15253L14.7193 8.26824L14.468 8.34991C14.3142 9.03936 12.4682 12.2702 12.3533 12.3047C12.8033 15.0309 8.269 20.84 7.24604 21.0895C7.15312 21.1133 6.84511 21.4417 6.80897 21.4927C6.11723 22.6634 5.58896 23.7013 5.27406 24.5215C4.95572 25.3399 4.78881 25.9559 4.76988 26.3677C5.08478 27.928 5.34289 28.8077 5.53906 29.0017C5.79545 29.2365 5.84535 29.4917 5.68704 29.764C5.62681 29.9375 5.67672 30.2864 5.83503 30.8019C5.85786 30.8774 5.87952 30.9502 5.90042 31.0205C6.02283 31.4322 6.11898 31.7556 6.27038 31.9896C6.63345 30.2659 7.4835 28.7328 8.54693 27.4158L8.78439 27.1997C9.07864 25.8521 9.4486 24.7631 10.2763 24.268C10.2797 24.2646 10.4088 24.1676 10.4501 24.2594C10.5757 24.53 10.82 25.277 10.8768 25.784C11.3414 25.5509 11.8766 25.5424 11.9351 25.6037C12.0332 25.6819 12.0332 25.8487 11.9351 26.1005L11.7561 26.4528C11.8353 26.3949 11.9179 26.3711 12.0074 26.3813C12.0968 26.3898 12.1708 26.5497 12.2293 26.8628C12.3584 27.6472 11.7768 30.9074 11.3173 31.2562C11.264 31.309 11.252 31.3311 11.2055 31.4179C11.2158 31.8824 11.0764 33.0922 10.7719 34.1914C10.5034 35.1596 10.0337 35.9934 9.76694 36.2741C9.78243 36.3201 10.7667 37.7324 10.7288 37.6081C10.8751 37.0773 11.0042 37.1232 11.0455 37.1402C11.2433 37.1794 11.6288 37.3189 11.8456 37.5537C11.9041 37.6303 11.9248 37.7375 11.9041 37.8753L11.7561 38.7839C11.6391 39.4458 11.9144 40.1503 12.5873 40.8921L13.5044 41.9165C14.0981 42.5222 14.542 42.8949 14.838 43.0293C14.9774 42.6992 15.1942 42.4491 15.4902 42.2721C15.7672 42.1377 17.4054 42.6975 20.4063 43.9447L21.8569 45.5085C22.0342 45.5867 22.3095 45.5816 22.6846 45.4438C23.2989 45.0558 23.9098 44.9742 24.5207 45.1103C25.1728 44.7802 25.6271 44.8006 25.8835 44.9946C25.9876 45.0856 26.0899 45.1696 26.1904 45.2521L26.1905 45.2522C26.4342 45.4523 26.6678 45.6441 26.8919 45.9066H28.0465C28.6987 44.7938 29.2011 44.3514 29.5556 44.1744C30.2042 43.8565 30.7836 43.5622 31.2936 43.3031L31.2944 43.3027L31.295 43.3024L31.2957 43.302L31.2959 43.3019C32.3839 42.7492 33.1564 42.3568 33.6131 42.2364C33.7318 42.2177 33.811 42.2449 33.8489 42.3232C34.1259 42.5767 34.2859 42.7639 34.3238 42.8796C34.9949 42.4712 35.3786 42.0883 35.4784 41.7378C35.6574 41.2682 36.0273 40.7577 36.59 40.2013C37.1527 39.6449 37.3953 39.1429 37.3179 38.692L37.1974 37.6064C37.311 37.4363 37.5055 37.1504 37.7446 36.9394C37.9102 36.7968 38.3188 36.9606 38.5469 37.052C38.6318 37.086 38.6918 37.11 38.7048 37.1045C38.7169 37.0688 39.7115 35.522 39.8732 35.2736C39.8425 35.237 39.8114 35.2085 39.7818 35.1814C39.6808 35.0886 39.5979 35.0126 39.6099 34.69C39.4217 34.5034 39.2245 34.3258 39.0325 34.1528L39.0324 34.1527C38.3188 33.5097 37.676 32.9306 37.8238 32.1972L37.8164 32.1818C37.7213 31.9832 37.5124 31.5471 37.5141 31.2886C37.5141 30.4157 38.4381 30.4242 38.8459 30.7866C38.8258 30.4346 38.4914 29.8755 38.1418 29.291C37.775 28.6778 37.3914 28.0366 37.3368 27.5775C37.2611 26.9394 37.884 26.8203 38.3538 27.1912C38.2764 26.0461 38.9681 24.8159 39.6168 24.9673C39.8491 25.0234 40.1571 25.1375 40.1812 25.3263C40.269 24.9911 40.7095 24.9656 40.7766 24.9928C40.947 25.0592 41.1397 25.1953 41.2309 25.4863C41.5406 26.4493 41.723 27.8412 41.4735 28.2836C41.3885 28.4331 41.2694 28.5906 41.1975 28.6857L41.1974 28.6858C41.1646 28.7292 41.1416 28.7596 41.1362 28.7703C41.0347 28.983 41.064 29.5275 41.0726 29.6874C41.0898 29.9171 41.1397 30.2285 41.1947 30.1877C41.3352 30.0795 41.5482 29.931 41.6096 29.8882L41.6098 29.888L41.61 29.888L41.6102 29.8878L41.6267 29.8763C41.8727 29.7061 42.4148 29.9903 42.3786 30.3153C42.432 30.1281 42.845 30.1809 42.8226 30.2064C42.9499 29.6721 43.0859 29.1259 43.9256 29.5258C44.1648 28.7413 44.3368 27.8753 44.4401 26.9343L44.44 26.9277C44.4393 26.8685 44.4346 26.4746 44.5244 26.024C44.3148 25.4688 43.8251 24.8703 43.5964 24.5908L43.5964 24.5907L43.5963 24.5906C43.5209 24.4984 43.4739 24.441 43.4747 24.4313C42.6299 23.1551 41.9261 21.8466 41.4993 20.4769C41.1064 20.4697 40.9002 20.1736 40.7312 19.9307C40.6988 19.8843 40.6679 19.8398 40.6372 19.7997C40.4206 19.5199 40.244 19.2396 40.119 19.0411L40.1189 19.0411C40.0364 18.91 39.9763 18.8146 39.942 18.7787C39.4946 18.3261 38.5964 17.8123 38.4002 17.7204C37.6173 17.5536 37.5261 16.5837 37.7997 16.3915C37.9167 16.3115 38.137 16.1992 38.1989 16.206C38.1695 16.1416 38.1044 16.049 38.0262 15.9378L38.0261 15.9377L38.026 15.9376C37.7651 15.5667 37.3582 14.9883 37.6414 14.5538C37.7446 14.3989 38.0268 14.2016 38.0922 14.2356C37.7894 13.8612 37.8703 13.1687 38.0268 12.7433L38.044 12.6966C38.168 12.3597 38.2967 12.0101 38.328 11.9759C37.8204 11.7615 37.2147 11.4229 36.8929 11.0775C36.5487 10.7049 36.3422 10.4496 36.2579 10.2727C36.165 10.1059 36.0755 9.87451 36.0635 9.72987C35.5696 9.74008 35.0551 9.69074 34.5871 9.63799C33.9693 9.52058 34.2223 8.97949 34.3169 8.87229C34.3238 8.81784 34.7471 8.47072 34.8452 8.46052L34.3943 8.27164C33.9211 8.03683 33.663 7.64547 33.6234 7.09927L32.4688 6.63134L32.5583 6.07494C31.7082 6.3693 30.9959 6.22297 30.4246 5.63593C30.0099 5.51853 29.8533 5.23607 29.9514 4.78686C29.5177 4.88385 29.0738 4.87364 28.6195 4.75623C28.0069 4.56055 27.692 4.31723 27.6714 4.02286C27.6507 3.73019 27.7006 3.5158 27.8193 3.37967C27.3651 3.14486 27.0743 2.84198 26.9452 2.47274C26.8179 2.1001 26.8867 1.81084 27.1534 1.60835C27.4201 1.40247 27.9088 1.27995 28.6195 1.24082C28.561 0.732054 28.7572 0.488732 29.2114 0.509151C29.5091 0.606139 29.824 0.692918 30.1596 0.77119C30.4951 0.851163 30.8117 1.03493 31.1077 1.3276C31.2849 1.03493 31.6583 0.985586 32.2331 1.18126C32.9248 1.49265 33.7542 2.14775 34.7213 3.14146C35.3115 2.73138 35.7073 2.88792 35.9052 3.61108L35.9929 4.22535C36.547 3.64171 37.1579 3.69957 37.829 4.40231C38.0458 4.40231 38.3142 4.4993 38.6291 4.69497C38.7891 4.6167 38.9543 4.58778 39.1333 4.60649C39.6099 4.62691 39.9524 4.87194 40.1709 5.33986C40.3877 5.80779 40.5271 6.2553 40.5839 6.6875C40.7215 6.15831 40.9711 5.96263 41.3255 6.10046C41.5836 6.39483 41.7987 6.9104 41.9777 7.65228C42.2943 8.04023 42.4595 8.48093 42.4802 8.96928C43.153 8.7736 43.874 9.24323 44.6449 10.3748C44.9202 10.043 45.2936 10.2284 45.7668 10.9312C46.0851 11.4791 46.2813 12.0542 46.3622 12.66C46.8526 12.4643 47.1313 12.9424 47.1898 14.0944C47.5632 14.9741 47.7457 15.5509 47.7353 15.8231C47.725 16.0954 47.6734 16.3302 47.5719 16.5259C47.8489 16.3285 48.0571 16.3881 48.1948 16.6994C48.532 17.2456 48.6783 17.6966 48.6387 18.0488C48.6387 18.418 48.3531 18.857 47.7818 19.3658C48.8263 19.0714 49.1326 19.4049 48.6972 20.3612C48.0657 21.3192 47.7198 21.9811 47.6631 22.3537C47.6631 22.9578 47.5873 23.4036 47.4376 23.686C47.2897 23.9685 46.961 24.2254 46.4465 24.4602C46.5222 24.6559 46.5153 24.8805 46.4155 25.1323C46.9902 24.6253 47.4445 24.4585 47.7801 24.6338C48.3479 24.188 48.8349 24.0978 49.2289 24.3718ZM21.3218 4.22535C21.7761 3.77443 21.9636 3.36606 21.9636 2.99512C21.5472 2.83688 20.9449 2.83688 20.236 2.99342C18.794 3.55834 16.9476 4.81749 14.6969 6.77087L14.6642 7.12139C15.7896 6.38122 16.9408 5.62913 18.1246 4.86853C18.8336 4.43974 19.4754 4.07731 20.0691 3.78294C20.6008 3.66724 20.778 3.74551 20.3238 4.01776C18.6047 4.95701 16.7188 6.16852 14.8432 7.65057V7.82924C15.4482 7.53766 16.0347 7.26212 16.5873 7.00252L16.5874 7.0025L16.5874 7.00249C17.4053 6.61825 18.149 6.26892 18.7682 5.95413C19.8058 5.42664 20.63 4.84811 21.3218 4.22535ZM15.2441 3.69786C16.3196 2.81816 17.6084 2.13584 19.1089 1.64749C19.8402 1.45181 20.47 1.36503 21.0052 1.38375C21.2616 1.4433 21.3304 1.58794 21.2134 1.82445L20.5612 2.67353C19.9882 2.7535 19.2035 3.07339 18.2072 3.64001C17.2092 4.20493 16.1372 4.95701 14.9929 5.89457L14.5782 6.15661C14.3613 6.00007 13.9673 6.06813 13.3943 6.3625C15.2114 4.85832 16.791 3.71658 18.1332 2.93557C19.0022 2.50507 19.5047 2.2022 19.6441 2.02694C19.2087 2.14434 18.5961 2.41319 17.808 2.83347C17.0182 3.25206 15.7156 4.12666 13.9002 5.45387L12.1519 7.00569C13.1379 5.67847 14.1686 4.57416 15.2441 3.69786ZM14.074 6.74365C13.957 6.70451 13.7402 6.77257 13.4235 6.94783C12.3773 7.74927 11.4481 8.86208 10.6394 10.2846L8.92722 13.4478L7.14796 16.5633L6.98621 17.0176C7.6573 16.0007 8.19489 15.1853 8.60586 14.562L8.60858 14.5578L8.61011 14.5555L8.61094 14.5543L8.6131 14.551C9.01177 13.9463 9.29045 13.5236 9.45549 13.2742C10.6807 11.2238 11.658 9.70946 12.3876 8.73276C13.119 7.75777 13.5681 7.19626 13.7367 7.04993C13.9036 6.90359 13.8985 6.97506 13.7212 7.26943C12.6544 8.82975 11.8697 10.0038 11.3655 10.7814C10.8613 11.5642 10.4329 12.2567 10.0767 12.8624C10.7684 12.2584 11.498 11.9079 12.2689 11.8092L13.3633 9.70265C13.8382 8.60855 14.0946 7.8922 14.1342 7.54848C14.1738 7.20817 14.1531 6.93762 14.074 6.74365ZM6.16713 14.1233C6.95695 12.8539 7.90509 11.0571 9.00981 8.73446C9.34536 8.05214 9.83921 7.28134 10.4914 6.42205C10.6875 5.97114 10.5809 5.98135 10.1644 6.45268C9.19737 7.64207 8.072 9.52739 6.78832 12.1035L7.35101 10.6981C7.45081 10.385 7.76571 9.67713 8.29742 8.57452C8.83085 7.47191 9.35396 6.59901 9.86847 5.95413C10.3813 5.30924 10.7357 4.88895 10.9336 4.69497C11.646 4.09092 12.059 3.80676 12.1777 3.8459C12.2758 3.92247 12.3068 4.05009 12.2672 4.22705L10.8166 7.91602C9.86847 9.73158 8.62436 11.6271 7.08429 13.5992C6.43385 14.3003 6.02947 14.7495 5.86944 14.9451C5.71285 15.1408 5.5838 15.328 5.48571 15.5032L5.60444 15.0047L6.16713 14.1233ZM6.01915 19.5121C6.23596 18.9081 6.55258 18.224 6.96728 17.4617L6.40287 17.5791L5.78168 19.4832L6.01915 19.5121ZM4.77676 22.4388L4.98325 21.5897L5.16049 20.7406L5.6337 20.6522L5.04176 22.2346L4.62706 23.6129L4.77676 22.4388ZM5.22072 16.8458C4.98325 17.5672 4.79569 18.3687 4.65803 19.2467L5.45818 17.1384L5.22072 16.8458ZM3.53266 25.0762L3.41393 24.8397C3.2952 24.6644 3.50169 23.5227 4.03512 21.4144C3.83723 22.9782 3.67032 24.1965 3.53266 25.0762ZM3.36919 18.3534C3.02332 20.921 2.92868 22.6072 3.08698 23.4053C3.44318 21.7463 3.7684 20.3986 4.06609 19.3658C4.2244 18.4844 4.68728 16.7777 5.45818 14.239C5.75415 13.3406 5.94687 12.5255 6.03635 11.7939C6.12583 11.0588 6.13099 10.3033 6.05184 9.52228C5.97269 9.32831 5.76447 9.41509 5.42893 9.78603C3.9095 11.5454 2.90286 13.3984 2.40901 15.3518C2.07346 16.7573 1.85665 18.2019 1.75684 19.6857C1.71727 20.9363 1.79986 22.01 2.00807 22.9067C2.21456 23.8068 2.43654 24.5334 2.674 25.0898C2.90975 25.6445 3.29692 26.0393 3.82691 26.2741C3.80626 26.1584 3.9009 25.6258 3.91811 25.6309C3.7598 25.7296 3.61181 25.7398 3.47243 25.6598C3.21604 25.5628 2.9889 25.2055 2.79102 24.593C2.59485 23.9753 2.5157 22.9765 2.55527 21.5897C2.75316 17.6268 3.45351 14.6304 4.65803 12.6004C4.93335 12.2073 4.94368 12.2958 4.68728 12.8607C4.15385 13.9565 3.71506 15.7874 3.36919 18.3534ZM3.96629 26.2179V25.75C4.48423 25.1979 4.60278 24.6637 4.71712 24.1484C4.76841 23.9172 4.81885 23.6899 4.9041 23.4665L5.94515 20.8291L7.15312 18.0471C7.80357 16.7981 8.72589 15.3722 9.88912 13.7711C10.5809 12.9696 11.1969 12.5391 11.7303 12.483C11.8697 12.677 11.8714 13.0785 11.732 13.6809C11.5944 14.2866 11.3586 14.9213 11.0214 15.5849L11.018 15.5864C10.9966 15.5962 10.9746 15.6061 11.0024 15.6207C9.72565 17.945 8.48842 19.6295 7.29078 20.6794L9.33331 17.4005L10.309 15.6445C10.6841 14.9792 10.7478 14.7461 10.512 14.94C8.51768 17.9092 7.31315 19.7759 6.9191 20.5347C6.53079 21.2827 6.13587 21.9831 5.76681 22.6376L5.74555 22.6753C5.61272 22.9103 5.47946 23.1267 5.35753 23.3247L5.35745 23.3248L5.35745 23.3248C5.13507 23.686 4.95041 23.9859 4.87485 24.2254C4.8523 24.2959 4.83254 24.3769 4.81021 24.4686L4.8102 24.4686C4.71492 24.8596 4.57266 25.4433 3.96629 26.2179ZM11.3208 30.6981C11.6563 29.3913 11.8542 28.2972 11.9127 27.4175C11.9523 26.8135 11.825 26.6586 11.5255 26.9496L11.0816 27.5043L11.1108 28.0914L11.2898 27.7698C11.4085 27.5332 11.4584 27.5452 11.4378 27.7987L11.1728 28.5304C11.2502 28.9013 11.3001 29.6245 11.3208 30.6981ZM11.4688 25.8368C11.7252 25.7772 11.7751 25.8946 11.6168 26.189L11.0541 27.0075C11.0145 26.6757 10.9646 26.3915 10.9061 26.1584C11.104 26.0223 11.2915 25.9151 11.4688 25.8368ZM10.3141 24.6355C9.93902 24.7342 9.54496 25.5935 9.13026 27.2133C8.83257 28.5031 8.65534 29.7027 8.59683 30.8172C8.55897 32.318 8.67599 33.7541 8.95303 35.1222L9.33848 35.5612L9.39698 33.276L9.42623 31.6085C9.48646 29.0714 9.6723 26.9904 9.98892 25.3723C10.1094 25.1562 10.1266 25.2429 10.0491 25.6326C9.90976 27.2338 9.82717 28.6631 9.79792 29.9239C9.76866 31.1814 9.73769 32.1921 9.70844 32.9544C9.67918 33.7133 9.6637 34.7002 9.6637 35.9117L10.0491 35.0915C10.4053 34.5436 10.6721 33.4921 10.8493 31.9301C10.987 30.6981 10.987 29.3182 10.8493 27.7851C10.7099 26.2503 10.5327 25.2021 10.3141 24.6355ZM6.50784 32.1206C6.83306 30.6828 7.57987 29.194 8.7431 27.6523C8.54521 28.4538 8.4368 29.0476 8.41787 29.439C7.55061 30.9227 6.8778 32.398 6.40459 33.863C6.28758 34.3122 6.18778 34.8499 6.10862 35.4727C6.05012 34.673 6.18262 33.555 6.50784 32.1206ZM7.79668 33.7439L8.44885 34.5624C8.30947 33.8817 8.25096 33.2164 8.27161 32.5732L7.79668 33.7439ZM14.4302 46.6604L14.8449 45.488L16.206 46.3677L14.4302 46.6604ZM15.4661 44.7564L17.6893 46.0734L18.9884 45.8437C18.615 45.6089 18.1694 45.2958 17.6566 44.9061C17.5379 44.593 17.3899 44.3786 17.2126 44.2612L16.8582 44.3497L17.0044 45.0524L16.4417 44.9367C16.4624 44.6832 16.2697 44.4229 15.8653 44.1608C15.4592 43.8971 14.9464 43.5534 14.3235 43.1348C13.7023 42.7162 13.1104 42.1972 12.5477 41.5813C11.985 40.967 11.6735 40.5603 11.615 40.3681C11.5169 40.0567 11.4034 39.8746 11.2743 39.8253C11.1453 39.7776 11.0902 39.616 11.1108 39.342L11.1711 38.9932L11.3483 37.8498L11.0816 37.7034L10.9044 38.2598C10.8441 38.5508 10.6411 38.4181 10.2952 37.8634C9.95106 37.3036 9.35396 36.4902 8.50563 35.4165L7.5575 34.2731L7.46974 34.5947C7.94467 35.277 8.34388 35.8947 8.6691 36.4409C8.99433 36.9871 9.2662 37.455 9.48302 37.8464C9.70155 38.236 10.0664 38.7924 10.5791 39.5139L11.2003 40.7458L12.2964 41.7719L12.3257 42.4457C12.1089 41.9948 11.911 41.7038 11.7338 41.5677C11.5565 41.4298 11.4085 41.4094 11.2898 41.5081C10.9147 41.8807 10.4329 41.634 9.83921 40.7764C9.54324 40.3834 9.21802 39.8661 8.86183 39.2229C8.78095 39.1055 8.94098 38.852 9.33503 38.4623L9.09757 38.1986L8.77235 38.4623L7.44049 36.5583L7.61772 36.2945L7.44049 36.0308L7.23228 36.1788L6.87608 35.5646L6.75907 35.8862L6.93803 36.2945L6.70056 36.412C6.5044 36.4324 6.49235 36.0802 6.67131 35.357C7.00686 34.3616 7.54029 33.0531 8.27161 31.4349C8.27161 31.0027 8.32151 30.4752 8.41959 29.8525C7.61084 31.275 6.98965 32.7077 6.5543 34.1557C6.33748 35.0133 6.20671 35.619 6.16885 35.9695C6.14992 36.104 6.1482 36.218 6.16025 36.3184C6.16373 36.3505 6.17502 36.3772 6.18623 36.4037L6.18625 36.4037C6.19167 36.4165 6.19706 36.4293 6.20155 36.4426C6.20435 36.4517 6.20697 36.4612 6.20962 36.4708C6.21835 36.5024 6.22741 36.5352 6.24456 36.56C6.26361 36.5909 6.29125 36.6102 6.31899 36.6295C6.32635 36.6346 6.33371 36.6397 6.34093 36.6451L6.35153 36.6546L6.35977 36.6623L6.35989 36.6624L6.35991 36.6624C6.37985 36.681 6.3994 36.6993 6.42696 36.7097C6.45553 36.7232 6.49271 36.7281 6.52914 36.733C6.53878 36.7342 6.54838 36.7355 6.55774 36.7369C6.57119 36.7398 6.58384 36.7435 6.59645 36.7472L6.59652 36.7472C6.62098 36.7543 6.64525 36.7614 6.67475 36.7625C6.67647 36.7625 6.67647 36.7523 6.67647 36.7523C6.68497 36.7523 6.69243 36.7543 6.70009 36.7564C6.70949 36.759 6.71921 36.7617 6.73154 36.7608C6.85887 36.7267 6.97072 36.7352 7.0688 36.7761L8.15116 38.692C7.92574 38.9081 7.58331 38.8486 7.11526 38.5202C6.75907 38.2649 6.40287 37.7851 6.0484 37.0841C5.81093 36.6144 5.60961 36.1567 5.44097 35.7075C5.27406 35.2566 5.10715 34.7325 4.93851 34.1251C4.7716 33.521 4.32248 32.2465 3.59117 30.3051C2.86157 28.3619 2.28511 27.1113 1.86009 26.5548C1.43506 26.0001 1.16318 25.7211 1.04617 25.7211C0.867215 25.6819 0.727834 25.8079 0.629752 26.1005C0.590174 26.2009 0.581571 26.674 0.600499 27.523C0.621148 28.3704 0.679653 29.0017 0.779457 29.4101C0.996272 30.5637 1.4299 31.8109 2.08207 33.1586C2.73423 34.5266 3.78905 35.99 5.25169 37.552C4.61845 36.4596 3.97661 35.2481 3.32617 33.9209C2.57592 32.2806 2.06314 31.0367 1.7861 30.1894C1.50906 29.3386 1.36107 28.7907 1.34042 28.5474C1.32149 28.304 1.36107 28.3092 1.45915 28.5644C1.55724 28.8162 1.76373 29.4203 2.08035 30.3765C2.5157 31.5302 3.33477 33.2386 4.5393 35.5033C5.44786 37.2593 6.03979 38.2649 6.31684 38.5202C6.76079 38.9847 7.20302 39.2382 7.59019 39.2893C7.81733 39.3233 8.02382 39.2808 8.21138 39.1617L8.5366 39.3965L9.45549 40.95L10.4329 42.1207C10.9835 42.6669 11.5273 42.7843 12.0607 42.4729C12.1794 42.7843 12.3412 42.9017 12.5494 42.8234C12.7576 42.7451 12.9211 42.7741 13.0381 42.9119L13.4235 43.4087L15.4661 44.7564ZM7.97392 36.5549L8.15288 36.3813L8.98228 37.7579L8.8928 37.9331L7.97392 36.5549ZM9.69123 38.8979L9.36601 39.308L9.87019 39.9852L10.3434 40.5995C10.5413 40.8717 10.7787 41.0759 11.0541 41.2137L10.9061 40.7747L10.4604 39.9835L9.69123 38.8979ZM19.6733 45.7212L18.4 44.8432C18.0047 44.3763 17.6903 44.0095 17.4589 43.7396L17.2746 43.5244C17.0371 43.2522 16.81 43.0582 16.5914 42.9391C16.2748 42.7639 16.0202 42.706 15.8223 42.7639C15.6846 42.8013 15.5366 42.9987 15.3783 43.3492L15.3181 43.2913C15.3972 42.9595 15.5211 42.7536 15.688 42.6754C15.8567 42.5988 16.0683 42.6175 16.3247 42.7349L17.7461 43.4087L20.1758 44.3157C20.7677 44.9418 21.1325 45.3706 21.2702 45.6054C20.7798 45.6633 20.2446 45.7007 19.6733 45.7212ZM17.6273 54.1285C18.6753 53.4071 19.6131 52.6448 20.4425 51.8416C20.7591 51.5881 20.7677 51.3652 20.4683 51.1695C19.9951 51.2087 19.4926 51.3499 18.9592 51.5966C18.4258 51.8399 17.9319 51.9165 17.4776 51.8178L17.3882 52.3487C17.4277 52.5835 17.309 52.7571 17.0337 52.8541L15.9668 53.5126L16.1131 54.0673H15.8481L14.9585 53.6878L14.8414 53.9533L15.1374 54.1864C15.3955 54.2851 15.6519 54.462 15.9083 54.7139L16.619 55.0967C17.0526 55.3111 17.3675 55.2737 17.5654 54.9793C17.6256 54.7462 17.4673 54.5114 17.0922 54.2766L16.4417 54.1881L16.2938 54.0128L17.1524 53.6011C17.7856 53.2914 18.3414 52.963 18.825 52.6227C19.3085 52.2789 19.7387 51.942 20.1138 51.6119L20.3805 51.6409L19.8781 52.1973C18.7527 53.0361 17.8837 53.6402 17.2729 54.0128L17.6273 54.1285ZM32.8216 6.21616L32.8818 5.53895L32.3191 5.65635C31.784 5.83331 31.2522 5.67677 30.7188 5.19013C30.3626 5.24798 30.2146 5.11015 30.2749 4.78005C30.4125 4.48739 30.3747 4.33084 30.1561 4.31212L29.2975 4.40061C28.7434 4.32233 28.3803 4.16579 28.2014 3.93098C28.0826 3.737 28.1618 3.49368 28.4388 3.19931C27.9054 2.98491 27.5733 2.7518 27.4459 2.49657C27.3169 2.24303 27.3978 2.03885 27.6817 1.88231C27.9673 1.72576 28.4973 1.69684 29.2665 1.79553C29.0875 1.57943 29.0394 1.35482 29.1185 1.12001C29.1392 0.885194 29.6519 1.01281 30.6586 1.50116L31.2522 1.85168C31.4106 1.55901 31.6773 1.47223 32.0524 1.58964C32.5067 1.80403 32.93 2.06097 33.3258 2.36555C33.7215 2.66842 34.1655 3.10232 34.6593 3.67064C35.074 3.39669 35.3717 3.45454 35.5472 3.8442L35.6367 4.54694C35.2031 4.13686 34.6697 4.10624 34.0364 4.45846L33.6217 4.2832C33.0487 3.59917 32.7046 3.0819 32.5841 2.72968C32.4654 2.28047 32.4069 2.24133 32.4069 2.61397C32.4275 3.00533 32.6633 3.50219 33.1175 4.10624C32.2486 3.83399 31.6119 3.48347 31.2075 3.05297C30.8031 2.62248 30.4917 2.26345 30.2749 1.96908C30.058 1.61856 29.9686 1.61856 30.0081 1.96908C30.2456 2.39958 30.5725 2.79944 30.9855 3.17038C30.6706 3.03256 30.3747 2.89643 30.0976 2.76031C29.4059 2.46764 28.8346 2.3111 28.3803 2.29238C28.1635 2.29238 28.1532 2.33152 28.3511 2.40809C29.1202 2.60376 29.6795 2.78583 30.0236 2.94918C30.3695 3.11763 30.6018 3.26907 30.7205 3.4052C30.1665 3.64001 29.5952 3.74551 29.0015 3.72679C28.6264 3.70467 28.4595 3.71658 28.499 3.75572C28.5386 3.79485 28.6556 3.83399 28.8535 3.87312C29.5642 3.94969 30.2835 3.87312 31.0148 3.63831C31.5482 3.91226 32.1694 4.1743 32.8801 4.42783C32.4447 4.52652 32.0214 4.7205 31.6067 5.01487C31.4484 5.20884 31.5276 5.21905 31.8442 5.04379C32.1591 4.81068 32.634 4.66435 33.2655 4.60649L33.768 4.81068C33.7301 5.33816 33.8575 5.87415 34.1534 6.42035L33.8282 6.53776L32.8216 6.21616ZM34.8073 9.17347C34.871 9.34192 35.093 9.36744 36.1994 9.34873C36.2596 9.2126 36.3698 9.13944 36.5057 9.1054C36.2132 8.88931 35.9637 8.65449 35.7761 8.38735C35.6384 8.07596 35.5335 7.55869 35.5731 7.24561C35.2564 7.34089 34.9811 7.36131 34.7436 7.30176C34.5079 7.28474 34.4787 7.2354 34.6559 7.15712C35.1704 7.19626 35.6419 7.03972 36.079 6.6892C35.8226 6.33357 35.5249 5.99666 35.1893 5.66316C34.8538 5.32965 34.9519 5.30243 35.4853 5.57468C35.7623 5.76866 35.9998 6.00347 36.1977 6.27742C36.1375 5.82651 36.1375 5.44706 36.1977 5.13568C36.2958 4.64563 36.6313 4.40231 37.2043 4.40231C36.6709 4.10794 36.2183 4.32233 35.8432 5.0455C34.9932 4.57757 34.4597 4.57757 34.2429 5.0455C34.2618 5.63253 34.3857 5.99496 34.6129 6.13109C34.8417 6.26721 34.8366 6.4714 34.5991 6.74535L34.0657 6.94953C34.0966 7.73906 34.6903 8.08447 35.3321 8.37374L35.1325 8.70554C34.7436 8.92504 34.766 9.04415 34.8073 9.17347ZM36.8206 9.90684C36.7999 9.66862 37.0082 9.5393 37.4418 9.51037C37.8754 9.47975 37.946 9.36064 37.65 9.14454C37.077 8.94886 36.6038 8.61706 36.2287 8.14913C35.9723 7.81733 35.9723 7.58251 36.2287 7.44469L36.6726 7.33068L36.8808 7.06694L36.6141 6.0409C36.535 5.51172 36.6829 5.14248 37.0598 4.92809C37.5915 4.84982 38.1146 5.00636 38.6274 5.39602C38.648 5.12377 38.8304 5.04039 39.1763 5.14759C39.5205 5.25308 39.8422 5.98305 40.1382 7.33068L40.6114 7.50424C40.7697 7.135 40.8971 6.94783 40.9986 6.94783C41.1552 6.94783 41.3152 7.27113 41.4718 7.91261C41.8658 8.26484 42.0534 8.84166 42.0328 9.6431C41.7764 9.9749 41.6387 10.385 41.6198 10.875L41.3823 10.3458C41.2429 9.7605 41.1844 9.14454 41.2034 8.50135C41.1827 8.2274 41.1535 8.2274 41.1139 8.50135C41.0554 9.06627 41.0433 9.54441 41.0829 9.93746C40.5495 9.25344 39.9765 8.63578 39.3656 8.08958C39.2486 7.66078 39.2073 7.17244 39.2486 6.62624C39.1884 6.15831 39.1419 6.05111 39.1006 6.30294C39.061 6.88998 39.0799 7.43618 39.1574 7.94324C38.7031 7.49403 38.1731 6.84064 37.5588 5.98135C37.4005 5.7091 37.3317 5.65125 37.3523 5.80609C37.7274 6.50883 38.1215 7.09417 38.5362 7.5638C38.9509 8.03172 39.2882 8.40096 39.5445 8.67491C39.03 8.51837 38.5861 8.41627 38.2127 8.36693C37.8376 8.31929 37.4917 8.21549 37.1751 8.05895C36.8791 8.0011 36.8877 8.06916 37.2043 8.26313C37.3833 8.37884 37.7429 8.48944 38.285 8.58473C38.8287 8.68172 39.3363 8.84847 39.8113 9.08328C40.0677 9.23983 40.4152 9.63969 40.8506 10.2829L41.2034 11.0741C40.6527 10.7797 40.0401 10.5772 39.369 10.4598C38.6962 10.3441 38.3039 10.2352 38.1852 10.1382C37.6724 9.92385 37.6121 9.94257 38.0079 10.1978C38.1249 10.3118 38.5448 10.4462 39.2641 10.5909C39.9851 10.7372 40.6802 11.0162 41.3513 11.4246L41.4116 11.5982C41.2739 11.7581 41.224 11.9708 41.2636 12.2431L41.4701 12.8318C41.2911 12.6157 41.045 12.7144 40.7284 13.1245C40.8472 12.8709 40.8162 12.6361 40.6389 12.4217C40.3636 12.0117 39.6925 11.571 38.6239 11.103L38.4484 11.4246C37.5794 11.1558 37.0391 10.6487 36.8206 9.90684ZM43.1426 23.1143C43.5281 23.7388 43.8241 24.2016 44.0305 24.5045C44.2388 24.8056 44.5399 25.231 44.9322 25.7789L45.6739 25.75L45.7926 24.3445C46.326 24.1693 46.6031 23.897 46.622 23.5261C46.6426 22.0627 46.5532 21.0571 46.3553 20.5092C45.6653 19.6312 45.0045 18.9676 44.373 18.5184C44.0959 18.2462 44.1149 18.207 44.4298 18.4027C45.1611 18.8723 45.753 19.33 46.2073 19.7793L45.7633 17.9926C45.1903 17.506 44.6879 16.9394 44.2542 16.2945C44.0357 15.9831 44.0443 15.944 44.2818 16.1788C44.8169 16.822 45.2695 17.2507 45.6446 17.4668C45.4278 16.822 45.2024 16.1566 44.9632 15.476C44.2319 14.6372 43.6021 14.0484 43.0669 13.7183C42.6918 13.4461 42.6918 13.378 43.0669 13.5124C43.3629 13.5924 43.886 13.9429 44.638 14.5674C44.3816 13.9021 44.1235 13.2572 43.8671 12.6344C43.5522 12.2039 43.1771 11.8041 42.7417 11.4331C42.5834 11.2562 42.635 11.2477 42.8897 11.4042C43.1478 11.559 43.4231 11.8041 43.7191 12.1359L43.3336 10.9056C43.2958 10.5909 43.344 10.5909 43.4816 10.9056L43.8963 11.8432L44.5485 13.4835C44.6466 13.1891 44.6965 12.8386 44.6965 12.4285C44.7756 11.9215 44.8238 11.9419 44.8445 12.4881C44.8651 13.036 44.8255 13.5124 44.7275 13.9225C45.0217 14.644 45.2987 15.4165 45.5569 16.2349C45.8717 15.8248 46.0886 15.2514 46.2073 14.5078C46.3054 13.9804 46.345 14.028 46.3243 14.6542C46.2452 15.3961 46.0576 16.0103 45.7616 16.5004C46.018 17.5349 46.2555 18.4112 46.474 19.1361C46.6891 18.9982 46.9076 18.6358 47.1245 18.0522C47.3206 17.7595 47.3516 17.8089 47.2139 18.1985C46.9369 18.9795 46.7201 19.4389 46.5618 19.5734C46.7407 20.3357 46.8629 21.0248 46.9317 21.6391C47.0023 22.2533 47.0143 22.8455 46.9765 23.4104C47.1141 23.3321 47.1933 23.0701 47.2139 22.6192C47.2139 22.4048 47.2776 22.1223 47.4067 21.7701C47.534 21.4196 47.7353 20.9908 48.0124 20.482C48.267 20.0124 48.2567 19.7997 47.9831 19.8388L47.448 19.9851C47.269 19.9851 47.1812 19.8967 47.1812 19.7197C47.2225 19.3709 47.3757 19.068 47.6424 18.8145C47.9074 18.5609 48.0399 18.3261 48.0399 18.11C48.0829 17.9348 47.9711 17.5723 47.7164 17.0261C47.3206 17.1453 47.0574 17.2916 46.93 17.4668C46.8027 17.6421 46.7321 17.6489 46.7235 17.4822C46.7132 17.3154 46.8027 17.0772 46.9902 16.7658C47.1778 16.451 47.2363 16.1141 47.1675 15.7534C47.0986 15.3926 46.9076 14.889 46.591 14.2458C46.8061 13.327 46.5514 13.0649 45.8218 13.4546C45.8993 12.6923 45.7616 12.0372 45.4071 11.4927C45.1095 10.8852 44.8066 10.7593 44.4883 11.1098C43.8378 10.2131 43.3629 9.69414 43.0669 9.55972C42.771 9.42189 42.592 9.44061 42.5352 9.61757C42.475 9.79453 42.3752 10.0174 42.2375 10.2914C42.0999 10.5466 42.0999 10.9771 42.2375 11.5795C41.8022 11.6969 41.6249 11.913 41.7041 12.2244L42.0001 13.133C42.2375 13.4257 42.3907 13.7268 42.4612 14.0416C42.5283 14.3513 42.4939 14.6746 42.3563 15.0064C42.9688 14.6542 43.3818 14.6355 43.6004 14.9468C43.6795 15.2412 43.6967 15.493 43.6589 15.7091C43.6193 15.9235 43.609 16.3336 43.6296 16.9394C43.609 17.0755 43.7759 17.1997 44.1321 17.3052C44.4865 17.4107 44.595 17.6047 44.4556 17.8769C44.3781 17.9756 44.2043 17.9297 43.9376 17.7459C43.6726 17.5587 43.4902 17.5536 43.3904 17.7306C43.1358 18.0811 43.3336 18.481 43.9841 18.9302C45.2471 19.7486 45.7702 20.2183 45.5551 20.3357C45.1783 20.4139 45.051 20.6198 45.168 20.9516C45.2282 21.1456 45.4639 21.36 45.8786 21.5948C46.2744 21.8688 46.4224 22.2601 46.3226 22.7672C46.2641 23.3117 46.0576 23.6333 45.7031 23.732C45.5844 23.1858 45.5345 22.8301 45.5551 22.6634C45.5723 22.4983 45.4433 22.352 45.168 22.2244C44.8909 22.0968 44.5261 21.2154 44.0718 19.5734L43.4507 19.5427C44.0237 21.457 44.3885 22.4354 44.5468 22.4728C44.7034 22.5103 44.8617 22.7161 45.02 23.0871C45.0613 23.3797 45.0647 23.7915 45.0355 24.3173C45.0062 24.8431 45.1886 25.1 45.5827 25.0796L45.3159 25.4029C45.1009 25.3416 44.9219 25.2157 44.7825 25.02C44.6053 24.7478 44.5124 24.4704 44.502 24.1863C44.4917 23.9038 44.4865 23.6112 44.4865 23.3066C44.4865 23.0054 44.3368 22.9169 44.0409 23.0445C43.7449 23.1705 43.5539 23.1909 43.4627 23.1007C43.3749 23.0139 43.3216 22.9067 43.3009 22.7791C43.282 22.6515 43.3595 22.3826 43.5384 21.9726C43.578 21.6799 43.5642 21.474 43.4937 21.3583C43.4248 21.2443 43.2442 21.2035 42.9465 21.2443C42.6505 21.28 42.5524 20.9976 42.6505 20.3918L43.0067 19.1344C43.1254 18.4895 42.8673 18.4027 42.2358 18.8706C42.3339 18.3431 42.5232 17.962 42.7985 17.7289C43.0755 17.4941 43.1874 17.2099 43.1392 16.8781C43.0893 16.5463 43.0893 16.2298 43.1392 15.9269C43.1874 15.6241 43.1444 15.425 43.0067 15.3263C42.592 15.2854 42.05 15.7057 41.3771 16.5854L41.7024 15.7653C42.0379 14.7682 42.1067 14.0876 41.9106 13.7166C41.7127 13.4597 41.5045 13.2861 41.2877 13.1874C41.1311 13.247 40.9229 13.4512 40.6665 13.8017C40.4118 14.0944 40.2518 14.1505 40.195 13.977L40.343 13.07C40.3223 12.6787 40.1606 12.4098 39.8543 12.2635C39.5463 12.1172 39.2073 11.9385 38.8322 11.7224C38.7719 11.9589 38.6824 12.1903 38.5654 12.4251C38.3676 12.7774 38.2798 13.1381 38.2987 13.509C38.2196 13.7251 38.309 14.028 38.5654 14.4177C37.8737 14.4177 37.6861 14.7375 38.0028 15.3824L38.2402 15.733C38.3985 15.9286 38.5362 16.1941 38.6549 16.5242C38.2402 16.485 38.0131 16.5735 37.9752 16.7896C37.9546 17.0993 38.0613 17.3052 38.2987 17.4039C39.4843 17.9109 40.2225 18.4384 40.5219 18.9863C40.8747 19.6295 41.1621 19.9511 41.3789 19.9511L40.7869 18.3976C40.5288 17.9892 39.8698 17.5672 38.8029 17.1384C38.4863 17.004 38.4863 16.9649 38.8029 17.0227C39.6512 17.3562 40.2535 17.6506 40.6097 17.9024L40.3957 17.4118L40.3945 17.4092C40.2579 17.0959 40.1124 16.7622 39.9575 16.4085C39.6616 16.0784 39.2262 15.7449 38.6549 15.4131C38.3985 15.2174 38.3985 15.1885 38.6549 15.3263C39.1264 15.539 39.5532 15.8112 39.9283 16.1447C39.6512 15.4216 39.4327 14.5708 39.2744 13.5958L39.1574 13.2742L39.3656 13.3321C39.6237 14.1131 39.8904 15.0608 40.1657 16.1737C40.3034 15.6649 40.5288 15.1187 40.8472 14.5334C41.2206 13.9463 41.2808 13.9276 41.0244 14.4738C40.5305 15.5084 40.2931 16.2128 40.3137 16.5837L41.2309 18.6035C41.4098 17.8038 41.7936 17.0125 42.3872 16.2298C42.623 15.9388 42.6419 15.9695 42.444 16.32C41.7919 17.3545 41.4374 18.2019 41.3789 18.8672L41.9725 20.5347C42.0723 20.1468 42.2375 19.7435 42.475 19.3369C42.5765 19.199 42.5834 19.2382 42.506 19.4526C42.4268 19.667 42.327 19.98 42.21 20.3884C42.0895 20.7985 42.1205 21.2001 42.2995 21.5897C42.475 21.9811 42.7572 22.4881 43.1426 23.1143ZM44.9976 25.8793C45.0769 25.8517 45.2249 25.8576 45.3923 25.8643C45.4721 25.8675 45.5562 25.8708 45.6395 25.8708C45.3641 27.3529 45.0441 28.9813 44.7877 29.9971L44.373 29.7606C44.7292 28.3551 44.9202 26.776 44.9976 25.8793ZM38.7461 33.4206C39.2968 33.8698 39.6289 34.1404 39.7373 34.2272C39.8457 34.3156 39.9111 34.4518 39.9283 34.6406C39.9472 34.8244 40.0281 34.9571 40.1657 35.0354C40.4015 34.7819 40.608 34.5368 40.7869 34.302C40.7663 34.2033 40.7078 34.0876 40.608 33.9498C40.5116 33.8137 40.2294 33.5346 39.7648 33.116C39.3019 32.6958 38.9509 32.3299 38.7134 32.0168C38.5758 31.8433 38.6136 31.8212 38.8322 31.959C39.0868 32.2499 39.388 32.5239 39.7338 32.7791C40.0797 33.031 40.4204 33.3338 40.756 33.6861C40.6975 32.8268 40.589 31.9386 40.4307 31.0197C40.3533 30.4548 40.4015 30.4463 40.5787 30.9908C40.7973 31.7905 40.9263 32.3469 40.9659 32.66C41.0846 32.4831 41.1879 32.3078 41.2773 32.1308L41.3272 32.0325L41.3829 31.9231C41.4456 31.8 41.5145 31.6646 41.5888 31.5166C41.8039 31.1252 41.8349 31.1661 41.6766 31.6323C41.6181 31.8297 41.5441 32.0475 41.4546 32.2942C41.3651 32.5375 41.2653 32.757 41.1586 32.9527C41.0519 33.1484 41.0554 33.4921 41.1741 33.9787C41.5079 33.5278 42.0637 32.9629 42.8329 32.2806C42.9706 31.1473 42.931 30.5824 42.7159 30.5824C42.4974 30.5824 42.3494 30.7917 42.2685 31.2103C42.1911 31.6306 42.1412 31.5761 42.1205 31.0487C42.1016 30.5212 42.0259 30.237 41.8985 30.1996C41.7712 30.1604 41.6232 30.2149 41.4546 30.3629C41.2859 30.5093 41.1414 30.5858 41.0244 30.596C40.9057 30.6062 40.8248 30.1043 40.7887 29.0885C40.7887 28.8332 40.8661 28.6205 41.0244 28.4436C41.181 28.2683 41.2464 27.9229 41.2154 27.4039C41.1879 26.8867 41.1517 26.5293 41.1139 26.3353C41.0743 26.1414 41.0106 25.9559 40.9212 25.7789C40.8334 25.6037 40.7491 25.4863 40.6682 25.4267C40.5908 25.3689 40.4892 25.4335 40.374 25.6173C40.2552 25.8028 40.1657 25.8266 40.1072 25.6922C40.047 25.5543 39.9179 25.425 39.7235 25.3093C39.5256 25.1936 39.3312 25.2753 39.1453 25.5611C38.9578 25.8436 38.7754 26.4034 38.5981 27.2423C38.9905 26.7931 39.2968 26.5787 39.5153 26.5991C39.7304 26.6161 39.8491 26.7012 39.8715 26.8475C39.8904 26.9938 39.9438 27.198 40.0332 27.4618C40.1244 27.7255 40.1709 28.1101 40.1812 28.6188C40.1916 29.1259 40.2105 29.4339 40.2415 29.5411C40.269 29.65 40.2604 29.7555 40.2105 29.8644L40.2003 29.8861C40.156 29.9813 40.1207 30.0573 39.9558 30.1111C40.1077 30.1291 40.1075 30.1643 40.1073 30.2107L40.1072 30.2166C40.1072 30.2642 40.0522 30.4684 39.9438 30.8309C39.8354 31.1916 39.7717 31.4179 39.751 31.5166C39.7321 31.634 39.7424 31.8092 39.782 32.0458C39.6839 31.8892 39.634 31.7344 39.634 31.5761C39.7717 30.8138 39.8216 30.3748 39.782 30.2591L39.665 30.1417L39.782 30.026C39.8594 29.4594 39.8508 28.9115 39.751 28.384C39.653 27.8582 39.5256 27.4822 39.3656 27.2559C39.2107 27.033 38.8838 27.1844 38.3899 27.7119C38.1335 27.4975 37.946 27.4192 37.8255 27.4771C37.7085 27.5349 37.7584 27.7885 37.9752 28.2394C38.2127 28.5695 38.4605 28.9711 38.7169 29.4373C38.8545 29.7334 38.9715 30.0243 39.0731 30.3187C39.1711 30.6097 39.1711 30.9227 39.0731 31.2562C38.4983 30.8257 38.1353 30.722 37.9752 30.9483C37.8169 31.1712 37.7928 31.3992 37.9012 31.634C38.0114 31.8671 38.1353 32.073 38.2729 32.25C38.094 32.6022 38.2523 32.9935 38.7461 33.4206ZM29.1202 44.9299C29.3577 44.6577 29.6623 44.4127 30.0391 44.1983C31.7168 43.3781 32.8319 42.9 33.3843 42.7639C33.4841 42.7247 33.5735 42.7519 33.651 42.8506L33.8884 43.145L33.5632 43.3492C33.3653 43.5057 33.1193 43.5738 32.8216 43.5551C32.5652 43.5347 32.2193 43.618 31.784 43.8035C31.3503 43.989 31.1129 44.2493 31.0733 44.5794C30.9941 44.8142 30.8857 44.9606 30.7481 45.0201C30.3127 45.2549 29.9187 45.4591 29.5625 45.6344L28.6453 45.5765L29.1202 44.9299ZM31.488 45.9066H31.6377L31.6239 45.7824C32.3811 45.471 32.813 45.1358 32.9128 44.9061C33.0504 44.3582 33.0418 44.0996 32.8835 44.0792C32.5067 44.04 32.1608 44.1557 31.8459 44.3922C31.5104 44.5879 31.3916 44.8959 31.4897 45.226L31.6222 45.7212C31.6008 45.7309 31.5797 45.74 31.5583 45.7491L31.5582 45.7491C31.535 45.7591 31.5113 45.7692 31.4863 45.7807L31.223 45.2924L30.1871 45.7977L31.1628 45.9321C31.2219 45.9091 31.2788 45.8953 31.3342 45.8818L31.3343 45.8818C31.3853 45.8694 31.4351 45.8573 31.4845 45.8386L31.488 45.9066ZM27.3134 49.6773L27.1655 49.2059L26.367 50.2031L25.7149 50.6131C25.4189 50.865 25.1126 50.9636 24.796 50.9058L23.7584 50.4072L24.2918 50.1452L24.4381 50.2609C24.34 50.5536 24.4587 50.5144 24.7943 50.1452L25.7131 49.2655C25.7717 48.738 25.6443 48.0591 25.3277 47.2321C25.0111 46.4018 24.7753 45.8777 24.617 45.6633C24.5775 45.4863 24.1232 45.4472 23.2542 45.5476C23.767 45.2941 24.3692 45.2737 25.061 45.4897L25.7717 45.7807L26.1588 45.6191L26.1038 45.568L26.1881 45.6072L26.1588 45.6208L26.3653 45.813C27.372 46.8867 27.9381 47.6201 28.0671 48.008C28.1962 48.3977 28.2117 48.7806 28.1119 49.1515C27.7385 49.6381 27.4718 49.8117 27.3134 49.6773ZM26.1038 45.568L25.4464 45.2549L25.8026 45.2839L26.1038 45.568ZM34.7178 53.9533L34.3926 53.892L33.9194 54.0111L33.207 53.892C32.9111 53.9533 32.6684 54.0196 32.4826 54.0996C32.2933 54.1762 32.1419 54.3038 32.0214 54.4808L32.1419 54.8313L32.6443 54.9198C33.0986 54.8211 33.4927 54.6254 33.8299 54.3327L34.5991 54.0996L34.7178 53.9533ZM33.2965 53.7304C32.9435 53.7304 32.6779 53.8772 32.4982 53.9765C32.4064 54.0272 32.337 54.0656 32.2899 54.0656H31.8752C31.4956 53.5741 31.1688 53.3336 30.894 53.1312L30.8939 53.1312C30.7539 53.0281 30.6273 52.9349 30.514 52.8234L29.1202 51.6596C29.3766 51.5218 29.929 51.6102 30.779 51.8433L33.2965 53.7304ZM38.8356 47.5367C38.5379 47.6354 38.1043 47.6592 37.5313 47.6099C36.9583 47.5622 36.0273 47.4227 34.7454 47.1862C33.4221 46.9905 32.2813 46.7761 31.3228 46.5413C30.3661 46.3099 29.2717 46.1534 28.0465 46.0734L27.5956 46.1329V46.3082C28.3459 47.0092 28.5851 47.6184 28.7124 48.1374C28.8415 48.6546 28.9 48.9864 28.869 49.1328C28.8398 49.2808 28.6574 49.5684 28.3201 49.9972L28.1136 50.2013L28.5868 50.3188C30.7188 50.9245 32.6048 51.3346 34.2429 51.5507C36.5143 51.8416 38.4605 51.971 40.0763 51.9318C42.3494 50.4294 44.1458 49.2076 45.4674 48.2718L47.0092 47.2747C47.4015 46.8067 47.6613 46.395 47.7783 46.0445C47.2432 45.2822 46.9076 44.4824 46.7683 43.6436C46.6891 43.3118 46.6599 42.9544 46.6805 42.5733C46.6994 42.1938 46.2933 41.9948 45.4657 41.9743L44.7533 42.0033L43.153 41.9165C42.8346 41.8382 42.6144 41.6902 42.4939 41.4758L42.4268 41.1831L42.9706 41.3294V40.6863L42.5748 40.802C42.062 40.9585 41.8934 41.1355 42.031 41.3294C42.2496 41.6034 42.3666 41.9165 42.3872 42.267C42.327 43.3611 42.2565 44.1302 42.179 44.5794C43.0669 43.8988 44.1716 43.2131 45.4966 42.5307C45.3762 42.4729 45.18 42.4525 44.9047 42.4729C44.6655 42.3742 44.6466 42.2483 44.8445 42.09C45.4571 42.09 45.9165 42.136 46.2228 42.2211C46.5291 42.3112 46.5136 42.4525 46.1798 42.6481C45.0733 43.1144 43.7208 43.9447 42.1205 45.1358C40.4634 46.5209 39.369 47.324 38.8356 47.5367ZM35.3098 46.834C34.797 46.7574 33.9676 46.6094 32.8216 46.3933L33.8592 46.0445C34.4115 46.1602 34.7282 46.0445 34.8073 45.6922C34.8848 46.1023 35.0534 46.4835 35.3098 46.834ZM41.1156 39.5428C40.9762 39.0732 41.107 38.624 41.501 38.1952L42.4733 37.3172C42.2565 36.5174 42.3872 35.9508 42.8604 35.619C42.7038 35.2277 42.7125 34.7682 42.8897 34.2425C42.0809 35.961 41.5716 37.0109 41.3651 37.3903C41.1569 37.7681 40.9934 37.9314 40.8747 37.8736C40.7577 37.8157 40.7078 37.5027 40.7267 36.936L40.4032 37.4924L40.4325 38.5185C39.0111 40.334 38.0836 41.3482 37.65 41.5643C37.4108 41.663 37.194 41.8093 36.9978 42.0033C36.7019 42.1207 36.6227 42.0526 36.7587 41.7991C36.917 41.6221 37.1544 41.4588 37.471 41.3005C37.884 41.0079 38.2024 40.6165 38.4192 40.1281C38.7754 39.2501 39.4551 38.0574 40.4634 36.5549C40.7594 36.0274 41.501 35.0422 42.6849 33.5959L42.7159 32.8659C42.339 33.2556 41.8848 33.7337 41.3513 34.302C40.8179 34.8652 40.3154 35.4761 39.8422 36.1295C39.369 36.7846 38.9251 37.4924 38.5104 38.253C38.254 38.447 37.9683 38.3687 37.6517 38.0182L37.7395 38.7516L37.7102 39.4543C37.5708 39.9206 37.3454 40.317 37.0288 40.6386C36.7122 40.9619 36.4145 41.3669 36.1375 41.8552C35.9224 42.4423 35.1325 43.0872 33.7697 43.7882L33.4152 44.0809C33.3946 44.5522 33.3447 44.8823 33.2672 45.078L34.2429 44.6679L36.2287 43.4666L36.3457 42.7349C36.7793 43.048 37.1665 43.1263 37.502 42.9714C37.798 42.8915 38.0767 42.6567 38.3452 42.267C38.6119 41.8773 39.0008 41.3958 39.5153 40.8309C40.0281 40.266 40.5632 39.8355 41.1156 39.5428ZM48.15 31.6935C48.0795 32.1836 47.916 32.6022 47.6596 32.9544C46.8491 33.8698 46.5153 34.4177 46.6547 34.593C46.8698 34.9639 46.8319 35.3842 46.5342 35.8521C46.1006 36.3813 45.5293 36.965 44.8169 37.6081C45.0148 37.9995 44.8668 38.3313 44.373 38.6053C43.8017 38.9166 43.1702 39.1906 42.4767 39.4254C43.7604 38.4691 44.5502 37.4431 44.8462 36.349C45.2592 35.9764 45.6257 35.7347 45.9423 35.6156C46.2193 35.4404 46.2675 35.3621 46.0903 35.3808C45.7341 35.5186 45.359 35.733 44.9649 36.0257C45.3418 35.2821 45.6068 34.4841 45.7651 33.6248C46.5342 32.8795 47.0195 32.2976 47.2174 31.8654C47.4927 31.4587 47.503 31.3702 47.2484 31.6051C46.9507 32.0917 46.4981 32.6107 45.8838 33.1552C46.1608 32.3163 46.4086 31.3805 46.6254 30.3459C46.7252 29.7419 46.6943 29.633 46.536 30.0226L46.24 31.0487C46.1023 30.6403 45.944 30.3255 45.7668 30.1111L46.154 31.3413C46.0731 31.8297 45.8855 32.5222 45.5896 33.4206C45.3142 32.6396 44.9477 31.9386 44.4934 31.3141C44.0804 30.8036 44.0099 30.7951 44.2852 31.2835C44.7429 31.9284 45.1146 32.7774 45.4123 33.8324C45.1748 34.7682 44.8995 35.5493 44.5846 36.1737C44.3454 35.8232 44.1011 35.5765 43.8413 35.4404C43.6451 35.3434 43.6451 35.4012 43.8413 35.6173C44.0994 35.8692 44.3059 36.1244 44.4625 36.3796C44.2267 36.9445 43.9153 37.4431 43.5315 37.8719C43.1444 38.3007 42.7658 38.6631 42.389 38.9558C42.8639 38.2343 43.0222 37.4329 42.8639 36.5549C42.8639 36.3983 42.986 36.2724 43.2338 36.1737C43.4816 36.075 43.5642 35.9678 43.4868 35.8521C43.27 35.4233 43.1581 35.0796 43.1616 34.8261C43.3199 34.7478 43.5556 34.7478 43.8705 34.8261C44.1269 34.6508 44.1028 34.4007 43.7965 34.0808C43.4902 33.7592 43.2992 33.2947 43.2184 32.6889C43.2184 32.3384 43.4575 32.2108 43.9307 32.3078C44.1476 32.2874 44.1682 32.0356 43.9893 31.5472L43.4851 30.8734C43.1306 30.0924 43.2786 29.8099 43.9307 30.0243L44.6999 30.4922C45.2127 30.6862 45.4588 30.3459 45.4398 29.4679C45.4398 29.2722 45.5947 29.228 45.901 29.3352C46.2073 29.4424 46.4878 29.2161 46.7442 28.6478C47.0006 28.3755 47.1985 28.629 47.3361 29.4101C47.2793 30.4463 47.534 30.9329 48.1053 30.8734C48.2034 30.9329 48.2171 31.2069 48.15 31.6935ZM48.9037 29.6585C49.0242 29.5309 49.0689 29.3675 49.0379 29.1752C49.0087 28.9796 48.7747 28.8434 48.3393 28.7635C48.8125 28.4691 49.1291 27.9927 49.2857 27.3274C49.2668 27.0347 49.0689 26.8867 48.6938 26.8867C48.8727 26.5344 48.9708 26.2196 48.9915 25.9355C49.0104 25.653 48.933 25.3655 48.754 25.0728C48.4167 24.8363 48.0124 24.906 47.5392 25.277C47.2036 25.1204 46.8078 25.2685 46.3553 25.7177C46.0989 26.7522 45.8924 27.7374 45.7341 28.6767C45.9922 28.8128 46.3381 28.5525 46.7717 27.8872C46.6547 27.6932 46.5635 27.3767 46.5067 26.9258C46.5446 26.5753 46.6048 26.594 46.6839 26.9649C46.7425 27.2797 46.8319 27.5128 46.9507 27.6302C47.2071 27.101 47.5047 26.6399 47.8386 26.1737C48.0571 25.8997 48.1156 25.9389 48.0175 26.1924C47.6235 26.7573 47.3361 27.358 47.1606 28.1016H47.2174C47.3009 28.1016 47.3987 28.0363 47.5118 27.9608C47.6401 27.8752 47.7881 27.7764 47.9573 27.7449C47.7218 27.8471 47.5439 27.953 47.4256 28.0539C47.7611 28.4844 47.9177 28.937 47.8988 29.4032L48.2223 29.9937C48.5613 29.8967 48.7867 29.7844 48.9037 29.6585Z" fill="white"/>
<path fill-rule="evenodd" clip-rule="evenodd" d="M4.17114 47.3785C4.02832 47.2542 4.02488 47.1879 4.01455 46.9888H4.01283V45.6718C4.35526 45.8539 4.69253 45.8334 5.0057 45.42C5.31716 44.9418 5.03324 44.627 4.6822 44.3803C4.61165 44.3157 4.47055 44.1897 4.33289 44.1336C4.22879 44.0732 4.14103 44.0115 4.05327 43.9498C3.96551 43.8881 3.87775 43.8265 3.77365 43.7661L3.77881 43.8954C3.79236 43.9075 3.80838 43.9195 3.82502 43.932L3.82502 43.932C3.89506 43.9846 3.97612 44.0454 3.93023 44.154C3.86657 44.2867 3.68073 44.5607 3.61534 44.6321L2.93392 45.6616C2.87369 45.7943 2.68441 46.0683 2.55363 46.1414C2.44699 46.2019 2.3803 46.1706 2.28171 46.1243L2.28169 46.1242C2.26098 46.1145 2.23885 46.1041 2.21465 46.0938L2.15442 46.1652C2.33706 46.21 2.47155 46.322 2.60285 46.4313L2.64311 46.4647C2.7095 46.4946 2.77711 46.5396 2.84495 46.5846C2.91604 46.6319 2.98738 46.6793 3.05781 46.7097L3.12148 46.6417C2.9821 46.5804 2.91155 46.5192 2.90467 46.3864C2.93577 46.3161 3.00039 46.2095 3.06413 46.1043C3.12381 46.0059 3.18273 45.9086 3.21268 45.8437L3.52586 45.4285C3.66696 45.5561 3.66696 45.5561 3.67728 45.7518L3.66696 46.8101L3.61878 47.147C3.65353 47.1764 3.70374 47.1892 3.75459 47.2022C3.80695 47.2156 3.86 47.2291 3.89754 47.261C3.96465 47.3274 4.0352 47.3887 4.10919 47.4516L4.17114 47.3785ZM3.70579 45.326L3.65319 45.2889L4.21588 44.4688C4.24901 44.4663 4.26494 44.4488 4.28086 44.4314C4.2972 44.4135 4.31352 44.3956 4.34838 44.3939C4.34838 44.3939 4.48432 44.4535 4.55487 44.5147C4.76308 44.6372 4.78029 44.9673 4.59444 45.2396C4.23499 45.7001 4.02912 45.5546 3.70579 45.326ZM7.6294 47.952C7.59216 47.9325 7.56488 47.9182 7.56274 47.877L8.0566 47.0569C8.12307 46.9464 8.15388 46.8952 8.19021 46.8909C8.2216 46.8872 8.25712 46.9185 8.32331 46.9769C8.60035 47.159 8.68467 47.4227 8.43344 47.763C8.2476 48.1067 7.98088 48.1833 7.70556 48.0012C7.67878 47.978 7.65224 47.964 7.62944 47.9521L7.62942 47.952L7.62942 47.952L7.62941 47.952L7.6294 47.952ZM9.27145 48.0216L9.27984 47.9797C9.32969 47.732 9.36725 47.5454 9.17164 47.3648L9.23359 47.2951C9.29711 47.3241 9.36333 47.3672 9.42988 47.4105C9.50394 47.4587 9.57841 47.5071 9.65001 47.5367C9.70162 47.5587 9.75323 47.5897 9.80825 47.6226C9.90181 47.6787 10.0052 47.7406 10.1353 47.7749L10.0699 47.843C10.0028 47.78 9.798 47.7307 9.73605 47.86C9.69445 47.9548 9.60705 48.2861 9.5359 48.5558C9.5011 48.6876 9.47018 48.8048 9.45041 48.8724L9.24736 50.0057L10.0854 49.3046C10.1223 49.263 10.194 49.1899 10.2779 49.1044L10.278 49.1043L10.2781 49.1042L10.2781 49.1042C10.4757 48.9027 10.7412 48.632 10.7823 48.5389C10.8893 48.3621 10.804 48.2951 10.7328 48.2392C10.7204 48.2295 10.7084 48.2201 10.698 48.2105L10.6911 48.0812C10.7759 48.1549 10.859 48.2064 10.9277 48.2491C10.9733 48.2774 11.0126 48.3018 11.0421 48.3262L11.0705 48.3385C11.1982 48.3935 11.3207 48.4464 11.388 48.5066L11.3914 48.5712C11.1693 48.4262 10.9647 48.6149 10.7593 48.8043C10.7069 48.8526 10.6544 48.901 10.6016 48.9439L8.9359 50.4889L8.79996 50.4276L9.27145 48.0216ZM7.04288 48.5829C7.07475 48.5241 7.10405 48.4699 7.12223 48.4283L7.43713 48.0165C7.43713 48.0165 7.57823 48.1407 7.64706 48.1356C7.99293 48.3807 8.53841 48.4845 8.84642 47.94C9.15788 47.4567 8.86707 47.079 8.52292 46.9003C8.45438 46.8707 8.38457 46.8241 8.31496 46.7778C8.24476 46.731 8.17476 46.6843 8.1065 46.6553C8.0354 46.5935 7.94896 46.5485 7.86266 46.5036C7.77559 46.4583 7.68867 46.4131 7.61781 46.3507L7.55242 46.4222C7.6918 46.48 7.82774 46.5396 7.77095 46.7387C7.71073 46.8118 7.51972 47.0841 7.46122 47.2185L6.84691 48.2445C6.78668 48.3824 6.59568 48.6529 6.46834 48.7295C6.41882 48.8354 6.32246 48.7827 6.21731 48.7253C6.18726 48.7089 6.1565 48.6921 6.12591 48.6784L6.1328 48.8129C6.19871 48.8422 6.26502 48.8852 6.33135 48.9282L6.33135 48.9282L6.33136 48.9282L6.33136 48.9282L6.33137 48.9282L6.33137 48.9282L6.33138 48.9282L6.33138 48.9282L6.33138 48.9282L6.33139 48.9282L6.33139 48.9282L6.3314 48.9282L6.3314 48.9282L6.33141 48.9282L6.33141 48.9282L6.33141 48.9282L6.33142 48.9282L6.33142 48.9282L6.33143 48.9282L6.33143 48.9282L6.33144 48.9282L6.33144 48.9282L6.33144 48.9282L6.33145 48.9282L6.33145 48.9283C6.40361 48.975 6.47579 49.0218 6.5475 49.0511C6.61853 49.0948 6.68168 49.1304 6.73956 49.163C6.85272 49.2268 6.94569 49.2791 7.03791 49.3591L7.10158 49.2944C7.07238 49.2683 7.04361 49.2451 7.01683 49.2234L7.01682 49.2234L7.01681 49.2234C6.91262 49.1392 6.83858 49.0794 6.88649 48.9711C6.88168 48.8808 6.96915 48.7192 7.04288 48.5829ZM5.63206 46.0785C5.69056 45.9423 5.87985 45.6684 5.94179 45.5969C5.99816 45.3976 5.86296 45.3392 5.72633 45.2801L5.72326 45.2787L5.85403 45.1988L7.31667 46.1176L6.93983 46.6655L6.871 46.6042C7.12051 46.1993 6.97424 46.0734 6.62837 45.8249L6.41672 45.7041C6.39097 45.68 6.3751 45.6651 6.35813 45.6637C6.33086 45.6615 6.30075 45.6941 6.22228 45.779L5.66303 46.6706C6.08117 46.982 6.27562 46.7727 6.46318 46.56L6.53029 46.5549C6.47195 46.6577 6.41112 46.7437 6.35678 46.8205C6.30052 46.9001 6.25122 46.9698 6.21883 47.0381C6.18932 47.0879 6.16343 47.1332 6.13933 47.1755C6.06365 47.308 6.00568 47.4096 5.9091 47.518L5.83855 47.4516C6.08634 47.0449 5.94523 46.9207 5.59936 46.737L5.22596 47.3546C5.20645 47.3971 5.18008 47.4406 5.15352 47.4844C5.09808 47.5759 5.04179 47.6688 5.04528 47.7562C5.05561 47.9553 5.19671 48.0863 5.33781 48.1407C5.68368 48.3228 5.88673 48.3756 6.20335 48.0353L6.27046 48.0301L5.9005 48.6376L4.22792 47.5333L4.28815 47.4652C4.36214 47.5248 4.49808 47.586 4.62886 47.5112C4.65186 47.4853 4.6924 47.431 4.74081 47.3662L4.74083 47.3662L4.74083 47.3662L4.74084 47.3662C4.82283 47.2564 4.92737 47.1165 5.00743 47.033L5.63206 46.0785ZM23.2508 47.8668L22.6968 46.8442L22.5264 47.9485L23.2508 47.8668ZM14.7352 50.0217L14.7352 50.0217C14.7171 49.9418 14.6991 49.8618 14.666 49.7981L14.5851 49.2195L14.7142 49.2144C14.7587 49.2139 14.8023 49.2066 14.8476 49.199C14.9409 49.1833 15.0417 49.1664 15.1736 49.2042C15.3078 49.3284 15.4455 49.4561 15.4524 49.7147C15.5264 50.038 15.4025 50.2966 15.1392 50.3732C15.0102 50.3766 14.8794 50.3783 14.8071 50.2507C14.7722 50.186 14.7537 50.1039 14.7352 50.0217ZM14.5782 49.0273L14.6436 49.0256C14.7017 48.9922 14.7604 48.973 14.8133 48.9557C14.8766 48.935 14.9315 48.917 14.9671 48.8809C15.0944 48.75 15.0893 48.5578 15.0842 48.3639L15.0841 48.3637C15.0084 48.0438 14.8742 47.9178 14.6144 47.9247C14.5507 47.9893 14.4131 47.9927 14.4131 47.9927C14.4131 47.9927 14.4165 48.1203 14.4199 48.185L14.5782 49.0273ZM12.6562 50.6335C12.5908 50.5025 12.5168 50.2422 12.5133 50.1146L12.4307 49.5973L12.4979 49.5956C12.694 49.5275 12.8902 49.5224 13.0227 49.582C13.2199 49.6413 13.2923 49.8341 13.3643 50.0257L13.3651 50.0278C13.4408 50.4157 13.3152 50.6761 12.9883 50.6829C12.8592 50.7509 12.7284 50.7577 12.6562 50.6335ZM12.3636 49.4033L12.4927 49.3403L12.5028 49.34C12.6285 49.3351 12.7542 49.3302 12.8179 49.2042C12.9453 49.0698 12.9418 48.9388 12.9366 48.7465C12.8627 48.4249 12.7216 48.2326 12.3963 48.3041C12.3963 48.3041 12.2656 48.3109 12.2002 48.3773L12.2036 48.5049L12.3636 49.4033ZM22.3714 48.5364C22.3897 48.4378 22.408 48.3392 22.4059 48.2616L22.4008 48.1339L23.2526 47.9757L23.5313 48.4266C23.5322 48.4579 23.5487 48.5055 23.5654 48.5534L23.5654 48.5534C23.5823 48.602 23.5993 48.651 23.6001 48.6835C23.6524 48.8194 23.569 48.8601 23.4937 48.8969C23.4624 48.9122 23.4325 48.9268 23.4143 48.9473L23.416 49.0102C23.4736 49.008 23.5438 48.9939 23.621 48.9784C23.7194 48.9586 23.8293 48.9365 23.9391 48.9337C24.0587 48.8699 24.2329 48.8616 24.3618 48.8554L24.3969 48.8537L24.3917 48.7278C24.2626 48.7312 24.1319 48.7346 24.063 48.6699C24.0293 48.6105 23.9805 48.5347 23.9313 48.4581L23.9313 48.458C23.8777 48.3747 23.8236 48.2906 23.7877 48.2258L22.7484 46.2486H22.6176L22.332 47.9995C22.3006 48.141 22.288 48.2809 22.2746 48.4302C22.263 48.5593 22.2508 48.6953 22.2253 48.8452C22.1616 49.0426 22.0996 49.1123 21.9052 49.1821L21.9069 49.2451C22.0411 49.2417 22.1685 49.2365 22.2993 49.1685C22.4283 49.1668 22.5625 49.1634 22.695 49.1583L22.6916 49.0273C22.666 49.0282 22.6379 49.0317 22.6093 49.0353C22.4898 49.05 22.3605 49.066 22.3578 48.9081C22.3165 48.8316 22.3439 48.6841 22.3714 48.5364ZM21.1825 46.6093L21.2496 46.6076L21.4079 47.4448L21.3374 47.4465C21.1928 46.9956 20.8555 46.6842 20.4649 46.7591C19.8076 46.8408 19.7646 47.6167 19.8455 48.2616C19.9986 48.9047 20.2757 49.5445 20.9313 49.4629C21.389 49.3216 21.5094 48.932 21.4974 48.4147L21.5611 48.3466L21.7176 49.3114L21.58 49.1225C21.3905 49.3842 21.1316 49.4549 20.8721 49.5258L20.8659 49.5275C20.1483 49.6807 19.5409 49.177 19.386 48.3415C19.2965 47.501 19.6734 46.7778 20.3909 46.6978C20.723 46.623 20.9227 46.6825 21.1877 46.8033L21.1825 46.6093ZM18.4562 47.5869C18.4746 47.6829 18.493 47.7786 18.4947 47.843L18.727 49.0698C18.7275 49.1094 18.735 49.1614 18.7432 49.2182C18.7614 49.3446 18.7829 49.4945 18.739 49.5837C18.7424 49.7762 18.6191 49.7809 18.4889 49.7859L18.4826 49.7862L18.4844 49.8474C18.6822 49.8423 18.8784 49.8372 19.0075 49.7708L19.5323 49.7572L19.5288 49.6262C19.4015 49.6296 19.2673 49.633 19.195 49.5054C19.1314 49.4441 19.0574 49.1225 19.0539 48.9949L18.887 47.7681C18.8239 47.6449 18.8156 47.4135 18.8105 47.2731L18.8096 47.2474C18.8715 47.1232 19.0023 47.0535 19.0677 47.0518L19.066 46.9854C19.0067 46.9869 18.9348 47.0024 18.856 47.0193C18.7585 47.0403 18.6504 47.0635 18.5429 47.0654L18.5427 47.0654C18.4102 47.0688 18.2107 47.0739 18.0163 47.1487L18.0834 47.2066L18.0838 47.2066C18.1527 47.2049 18.2799 47.2017 18.4172 47.3274C18.419 47.3932 18.4376 47.4902 18.4562 47.5869L18.4562 47.5869ZM16.2061 48.2752C16.2044 48.2099 16.1847 48.0982 16.165 47.9861C16.1451 47.8732 16.1252 47.7599 16.1235 47.6932C16.0529 47.5673 15.8602 47.5707 15.7931 47.6371L15.7225 47.5095L15.7228 47.5095C15.9189 47.5061 16.1167 47.5026 16.2474 47.4363L16.2634 47.4358C16.4544 47.4292 16.6484 47.4225 16.7739 47.3546L16.8393 47.4805L16.8343 47.4807C16.7053 47.4858 16.5787 47.4907 16.5158 47.6167C16.5176 47.6826 16.5377 47.7985 16.5576 47.9136C16.5768 48.0243 16.5959 48.1344 16.5984 48.1986L16.7619 49.4237C16.8428 49.941 16.977 50.0669 17.4381 49.9886C17.483 49.9656 17.5363 49.9497 17.5921 49.9331C17.6969 49.9019 17.8104 49.8682 17.8924 49.7793C18.0232 49.6517 18.0182 49.4629 18.0131 49.2682L18.0129 49.2604L18.1419 49.1923L18.2262 49.9682C18.1643 49.9699 18.0937 49.9716 18.0335 49.9716C17.734 50.0128 17.4188 50.0701 17.1043 50.1271L17.1043 50.1271L17.1043 50.1271L17.1043 50.1271L17.1042 50.1272L17.1042 50.1272L17.1042 50.1272L17.1042 50.1272L17.1042 50.1272L17.1041 50.1272L17.1041 50.1272L17.1041 50.1272L17.1041 50.1272L17.1041 50.1272L17.1041 50.1272L17.1041 50.1272L17.1041 50.1272L17.1041 50.1272L17.1041 50.1272L17.1041 50.1272L17.1041 50.1272L17.104 50.1272L17.104 50.1272C16.7953 50.1832 16.4873 50.2391 16.1958 50.2796L16.194 50.2132C16.2278 50.1966 16.2615 50.1839 16.293 50.1722C16.3834 50.1384 16.4547 50.1118 16.4521 50.0159C16.4961 49.9241 16.4716 49.7329 16.4524 49.5834C16.4446 49.5222 16.4377 49.4681 16.4367 49.4305L16.2061 48.2752ZM13.9588 48.1339C14.031 48.1986 14.1033 48.5185 14.1068 48.6495L14.2668 49.8763C14.2685 49.9401 14.2874 50.0371 14.3064 50.1341L14.3064 50.1341L14.3064 50.1341C14.3253 50.2311 14.3442 50.3281 14.3459 50.3919C14.3494 50.5876 14.1567 50.5927 14.0913 50.5944L14.0947 50.7203C14.2874 50.6505 14.4819 50.5842 14.6849 50.5791L14.7006 50.5785C14.8294 50.5735 15.0144 50.5663 15.0755 50.5042L15.0772 50.5042C15.2749 50.4974 15.5372 50.4883 15.7294 50.2898C15.8568 50.1554 15.9841 49.958 15.9755 49.633C15.9049 49.4441 15.7673 49.2536 15.5694 49.1328C15.4336 49.0068 15.2408 49.0118 15.0439 49.0168L15.036 49.017C15.2941 48.8758 15.5556 48.6784 15.4782 48.2922C15.399 47.7749 14.9379 47.7188 14.5456 47.797C14.4781 47.7996 14.4123 47.818 14.3476 47.8362C14.2819 47.8546 14.2174 47.8727 14.1532 47.8736C13.9519 47.877 13.8228 47.8821 13.6249 47.9553L13.6267 48.0182C13.7609 48.0131 13.8899 48.0097 13.9588 48.1339ZM11.8904 49.0273C11.8887 48.9627 11.8688 48.8459 11.8492 48.7303C11.8305 48.6205 11.8121 48.5118 11.8096 48.4504C11.7407 48.3245 11.6082 48.3262 11.4792 48.396L11.4757 48.265C11.6065 48.2633 11.8044 48.2565 11.9334 48.1867L11.9483 48.1863C12.1396 48.1815 12.2671 48.1782 12.3929 48.1135C12.7181 48.0387 13.2498 48.0897 13.3307 48.6682C13.4064 49.0579 13.2137 49.2536 12.9573 49.388C13.1552 49.3812 13.3513 49.3761 13.4838 49.4424C13.6869 49.565 13.8211 49.7555 13.8297 50.0142C13.902 50.2728 13.7798 50.4702 13.5837 50.6676C13.4546 50.8003 13.1948 50.8717 12.9969 50.8751L12.9883 50.8754C12.7918 50.8821 12.6647 50.8864 12.5392 50.9551C12.4056 50.9577 12.3069 50.9773 12.2085 50.9969C12.1103 51.0164 12.0124 51.0359 11.8801 51.0385L11.8784 50.9704C11.9161 50.951 11.9544 50.9368 11.9911 50.9232C12.0798 50.8903 12.1598 50.8606 12.2036 50.7679C12.2019 50.7063 12.1828 50.5958 12.1636 50.4844C12.1441 50.3712 12.1245 50.2571 12.1227 50.1928L11.8904 49.0273ZM33.9797 48.1833L34.1793 49.371L33.4463 49.24L33.9797 48.1833ZM38.6035 48.7405L38.6035 48.7404C38.5896 48.6529 38.5776 48.577 38.5776 48.5474C38.5272 48.3901 38.4318 48.4007 38.3294 48.412C38.3022 48.415 38.2746 48.4181 38.2472 48.4181V48.282H38.7772C38.8367 48.282 38.91 48.2686 38.9909 48.2539C39.0901 48.2358 39.2006 48.2156 39.3106 48.2156V48.3483C39.1798 48.3483 39.0422 48.3483 38.9802 48.4845V49.0749L39.1127 50.266C39.1127 50.3987 39.1127 50.7271 39.1816 50.8615C39.2469 50.9926 39.3794 50.9926 39.5085 50.9926V51.0572H38.9785C38.7772 51.1236 38.6464 51.1236 38.4451 51.1236V51.0572C38.5139 51.0572 38.7135 51.0572 38.7135 50.8615C38.7566 50.7692 38.7397 50.6134 38.7255 50.4818L38.7255 50.4817C38.7192 50.4243 38.7135 50.3715 38.7135 50.3306L38.6447 49.0749C38.6447 49.0004 38.6224 48.8598 38.6035 48.7406L38.6035 48.7405ZM36.0632 48.5209L36.0632 48.5209C36.0454 48.6375 36.0274 48.7552 36.0274 48.8231L35.8347 50.0108C35.7659 50.1486 35.7005 50.477 35.7005 50.5399C35.5663 50.6727 35.4338 50.6727 35.3047 50.6727V50.739C35.6478 50.8079 35.9743 50.859 36.302 50.9102C36.6055 50.9576 36.9101 51.0053 37.2302 51.0674C37.2302 51.0674 37.3644 51.0674 37.3644 51.1338L37.5623 50.3409H37.4281C37.4209 50.3706 37.4146 50.3986 37.4085 50.4253C37.361 50.6349 37.334 50.754 37.0943 50.8717C37.008 50.915 36.8947 50.9019 36.7701 50.8875C36.7034 50.8798 36.6334 50.8717 36.5626 50.8717C36.1651 50.8037 36.1014 50.6727 36.1651 50.1469L36.363 48.8877C36.3991 48.8198 36.4167 48.6997 36.4341 48.5813V48.5812C36.4507 48.4683 36.467 48.357 36.4989 48.2939C36.5494 48.1914 36.6875 48.2108 36.776 48.2232C36.7991 48.2265 36.8188 48.2292 36.8327 48.2292L36.8964 48.0965C36.6968 48.0965 36.4972 48.0965 36.2976 48.0284C36.2287 48.0284 36.1435 48.0127 36.0595 47.9972C35.9775 47.9821 35.8967 47.9672 35.833 47.9672L35.7624 48.0284C35.8966 48.0284 36.0274 48.0965 36.098 48.2292C36.098 48.2933 36.0807 48.4065 36.0632 48.5209ZM33.2484 49.5037C33.2115 49.5749 33.1547 49.7074 33.1003 49.8346C33.0558 49.9385 33.0128 50.0388 32.9834 50.0992C32.9834 50.2354 33.0792 50.2768 33.1601 50.3118C33.1955 50.3271 33.228 50.3411 33.2484 50.3613V50.4276C33.1811 50.4276 33.1146 50.4109 33.0484 50.3943C32.9825 50.3778 32.9169 50.3613 32.8509 50.3613C32.7821 50.3613 32.7136 50.3443 32.6461 50.3275C32.5803 50.3111 32.5154 50.2949 32.4517 50.2949L32.5154 50.232C32.7132 50.232 32.7786 50.1639 32.9163 49.9648C33.0471 49.7011 33.1796 49.439 33.3155 49.1719L34.1122 47.5877L34.2447 47.6507L34.6439 49.8985C34.6806 49.9665 34.6982 50.0707 34.7155 50.1736C34.7316 50.2689 34.7475 50.3629 34.7781 50.4259C34.8302 50.5357 34.8834 50.558 34.9698 50.5944C34.9919 50.6037 35.0161 50.6139 35.0431 50.6267V50.6931C34.9841 50.6931 34.9127 50.6799 34.8336 50.6653C34.7352 50.6471 34.6249 50.6267 34.5114 50.6267C34.3772 50.5638 34.181 50.5638 33.9797 50.5638L34.0468 50.4259C34.0615 50.4259 34.0825 50.4292 34.1063 50.4329C34.1912 50.4461 34.3118 50.4649 34.3118 50.3613V49.9648L34.2447 49.5037L33.3155 49.371L33.2484 49.5037ZM32.9215 48.0863L32.9903 48.151L33.1211 47.4891L30.8617 47.0909L30.7275 47.7562L30.8617 47.8209C30.9271 47.2951 31.0579 47.2951 31.4588 47.3563C31.5896 47.3563 31.7909 47.4244 31.7238 47.4891L31.4588 49.536C31.3969 49.8695 31.3246 49.9325 30.9271 49.9325V49.9988C31.1267 50.0669 31.3246 50.0669 31.5276 50.0669C31.7238 50.1316 31.9251 50.1962 32.1213 50.1962V50.1316C31.7909 49.9988 31.7909 49.9325 31.7909 49.6007L32.1213 47.5537C32.1213 47.459 32.2303 47.4683 32.3671 47.4801C32.417 47.4844 32.4706 47.4891 32.524 47.4891C32.8561 47.5554 32.9903 47.6915 32.9215 48.0863ZM29.6228 47.7069C29.6228 47.6667 29.6288 47.6146 29.6353 47.5578V47.5578C29.6504 47.427 29.6684 47.2709 29.6228 47.176C29.6228 47.0449 29.4903 46.9769 29.3612 46.9769V46.8476C29.5539 46.9122 29.757 46.9769 29.8912 46.9769C29.991 46.9769 30.0904 46.9943 30.1898 47.0118C30.2891 47.0292 30.3885 47.0466 30.4883 47.0466L30.4195 47.1096C30.3489 47.1096 30.1528 47.1096 30.0891 47.244C30.0535 47.3118 30.0363 47.4146 30.0192 47.5169C30.0032 47.6124 29.9873 47.7075 29.9566 47.7732L29.8207 49.0256C29.757 49.16 29.757 49.4867 29.757 49.5547C29.757 49.7504 29.8895 49.7504 30.0203 49.7504V49.8848C29.9161 49.8484 29.8301 49.831 29.7436 49.8135C29.6645 49.7975 29.5848 49.7813 29.4903 49.7504C29.2889 49.7504 29.1582 49.7504 28.9603 49.6824V49.6211C29.0893 49.6211 29.2184 49.6211 29.2872 49.4884C29.3595 49.4237 29.4214 49.0936 29.4214 48.9626L29.6228 47.7069ZM44.6725 45.066L45.6688 45.7279L45.0717 46.1908L44.6725 45.066ZM41.1862 48.9133L40.3207 48.122L40.5203 49.2468L41.1862 48.9133ZM45.3401 47.1147C45.2713 46.9837 45.1371 46.6502 45.1371 46.4528L45.0717 46.3864L45.8047 45.8573L46.2005 46.1227C46.2346 46.1548 46.2828 46.1865 46.3307 46.218C46.3818 46.2516 46.4326 46.285 46.4655 46.3184C46.5326 46.4511 46.4018 46.5855 46.3347 46.6485L46.4018 46.7165C46.4666 46.6525 46.5317 46.6035 46.5967 46.5547L46.5967 46.5547C46.6647 46.5036 46.7324 46.4526 46.7993 46.3847C46.9185 46.2653 47.042 46.2024 47.1633 46.1407L47.1985 46.1227V45.99C47.066 46.058 46.9301 46.1227 46.7993 46.058C46.7305 46.058 46.4655 45.859 46.4018 45.796L44.4694 44.4705L44.4058 44.5386L44.9409 46.2554C45.0046 46.5209 45.0717 46.7846 45.2025 47.1147C45.2025 47.3155 45.2025 47.3785 45.0717 47.5095L45.1371 47.6456C45.1837 47.5484 45.2672 47.4859 45.335 47.4352L45.335 47.4352C45.3622 47.4149 45.3868 47.3965 45.4055 47.3785C45.538 47.3138 45.6671 47.2474 45.7359 47.1811L45.6671 47.0484C45.6051 47.1147 45.4709 47.2474 45.3401 47.1147ZM41.8109 46.9309C41.6147 46.8612 41.477 46.8612 41.3463 46.999L41.2791 46.8629C41.3078 46.8487 41.3333 46.8377 41.3564 46.8277C41.4387 46.7919 41.4904 46.7695 41.5441 46.6672C41.613 46.6672 41.7438 46.6025 41.8091 46.5379L44.404 47.3972L43.671 46.4018C43.6076 46.3391 43.5442 46.2444 43.4801 46.1486L43.48 46.1486C43.4118 46.0467 43.3427 45.9435 43.2718 45.876C43.1101 45.7647 43.0332 45.7934 42.8959 45.8447C42.8694 45.8546 42.8408 45.8653 42.8089 45.876L42.7401 45.8096C42.7848 45.7875 42.8292 45.7652 42.8735 45.7429C42.9622 45.6983 43.051 45.6536 43.1427 45.6105C43.2064 45.4761 43.2701 45.4132 43.4077 45.3434L43.4731 45.4132C43.4511 45.4578 43.4209 45.4874 43.3933 45.5146C43.3387 45.5682 43.2938 45.6123 43.3406 45.7433C43.3842 45.8294 43.5097 45.998 43.63 46.1597C43.6951 46.2471 43.7586 46.3325 43.8069 46.4018L44.8686 47.86L44.8015 47.9212C44.6673 47.9212 44.5365 47.86 44.4023 47.7902L42.007 46.999L42.8726 48.185C42.9363 48.308 43.1041 48.4797 43.2298 48.6083L43.2683 48.6478C43.406 48.7159 43.5368 48.6478 43.6676 48.5798V48.6478C43.6004 48.7822 43.4714 48.8469 43.3389 48.9116C43.2124 48.9725 43.1486 49.0349 43.0264 49.1544L43.0033 49.177L42.9414 49.1106L42.9439 49.1081C43.0747 48.9754 43.1389 48.9103 43.0739 48.7159C43.0033 48.5798 42.8726 48.3841 42.7383 48.2479L41.8109 46.9309ZM40.7199 50.2337C40.6545 50.0397 40.5908 49.7062 40.5908 49.5752L40.5203 49.4407L41.3187 49.046L41.6491 49.3114C41.745 49.3582 41.8067 49.4389 41.8582 49.5064C41.8779 49.5321 41.8961 49.5559 41.9141 49.5752C41.9847 49.7062 41.8487 49.8389 41.7145 49.8389L41.7816 49.9716C41.8824 49.8707 42.021 49.8091 42.1391 49.7566C42.1784 49.7391 42.2153 49.7227 42.2479 49.7062C42.3545 49.6022 42.5011 49.5368 42.6242 49.4819C42.6562 49.4676 42.6866 49.4541 42.7143 49.4407L42.6471 49.3761C42.6282 49.3761 42.604 49.3812 42.576 49.3871C42.5047 49.4022 42.409 49.4225 42.315 49.3761C42.1944 49.3164 42.0166 49.1438 41.9344 49.064C41.9275 49.0573 41.9213 49.0513 41.9158 49.046L40.1882 47.5265H40.054L40.3861 49.3114C40.4549 49.5752 40.5203 49.9053 40.5203 50.169C40.5908 50.4327 40.5203 50.5025 40.3861 50.6301L40.4549 50.6965C40.522 50.6301 40.6545 50.5655 40.7887 50.5025C40.8533 50.4685 40.9007 50.4358 40.948 50.403C40.9979 50.3685 41.0477 50.3341 41.1174 50.2983L41.0503 50.2337C40.9815 50.2983 40.7887 50.3681 40.7199 50.2337Z" fill="white"/>
<path fill-rule="evenodd" clip-rule="evenodd" d="M10.118 36.2741C10.0233 36.1499 9.88567 35.9628 9.73596 35.7586L9.51399 36.0376C9.69123 36.2775 9.84609 36.4851 9.92525 36.5872L10.0078 36.691L11.5978 35.9781C12.0538 36.4732 12.558 36.9684 13.1362 37.4822L12.4135 39.0664L12.515 39.1498C12.8023 39.3829 14.0172 40.249 14.3338 40.4549L14.4439 40.5263L15.7293 39.3574C16.3557 39.7198 17.0079 40.0465 17.6686 40.3272L17.4707 42.0543L17.5946 42.0986C17.9577 42.2296 19.3859 42.6856 19.7387 42.786L19.8678 42.8234L20.723 41.3158C21.4646 41.4724 22.1839 41.5847 22.8619 41.6459L23.2163 43.3458L23.3506 43.3492C23.5622 43.3577 24.0733 43.3594 24.4794 43.3594C24.8855 43.3594 25.3931 43.3577 25.5979 43.3492L25.7338 43.3458L26.0745 41.6545C26.8454 41.5762 27.5492 41.4656 28.2134 41.3175L29.0789 42.8234L29.208 42.7877C29.5797 42.6822 31.0113 42.2279 31.3538 42.0986L31.4777 42.0526L31.2798 40.3374C31.9526 40.0431 32.5996 39.713 33.207 39.3574L34.5027 40.5246L34.6129 40.4566C34.9329 40.2558 36.1409 39.3761 36.4334 39.1515L36.5401 39.0698L35.8036 37.4959C36.387 36.9888 36.8929 36.4902 37.342 35.9781L38.9406 36.6893L39.0232 36.5906C39.2589 36.3031 40.1365 35.1035 40.343 34.7904L40.4152 34.6798L39.2365 33.4087C39.5996 32.7996 39.9283 32.1581 40.2174 31.5047L41.9622 31.6867L42.0121 31.5557C42.1326 31.2341 42.6126 29.8167 42.697 29.4424L42.7245 29.3216L41.2206 28.4674C41.3823 27.7204 41.4924 27.0245 41.5527 26.3507L43.2665 26.0036L43.2751 25.8759C43.3027 25.5118 43.3027 24.0059 43.2751 23.6418L43.2665 23.5125L41.5527 23.1756C41.4838 22.4269 41.3703 21.7173 41.2102 21.0622L42.7279 20.2081L42.697 20.0838C42.604 19.7078 42.1429 18.2938 42.0104 17.9552L41.9639 17.8344L40.2208 18.0403C39.9472 17.3971 39.6168 16.7539 39.24 16.126L40.4187 14.8567L40.3481 14.7478C40.1451 14.4262 39.2572 13.213 39.0128 12.9305L38.9285 12.8335L37.3575 13.5584C36.8791 13.0207 36.3749 12.5204 35.8208 12.0389L36.5436 10.4718L36.4403 10.3884C36.1564 10.1587 34.9398 9.26706 34.6043 9.06968L34.4959 9.00332L33.2259 10.1672C32.5996 9.80475 31.9491 9.47806 31.2884 9.2007L31.4845 7.49234L31.3675 7.443C31.0285 7.30177 29.5883 6.84405 29.2114 6.75046L29.0841 6.71984L28.2323 8.22061C27.5044 8.05726 26.8007 7.94496 26.0934 7.882L25.739 6.20086L25.6099 6.19235C25.4034 6.17704 24.8906 6.17194 24.4794 6.17194C24.2109 6.17194 23.8995 6.17364 23.6568 6.18044H23.5261H23.514L23.483 6.18215H23.4779L23.366 6.19065H23.3626H23.3574H23.354L23.3506 6.19235L23.2215 6.20086L22.8808 7.882C22.1202 7.95006 21.4027 8.06406 20.7402 8.22061L19.8626 6.71984L19.737 6.75046C19.3773 6.84065 17.9526 7.29837 17.5964 7.443L17.4759 7.49064L17.6721 9.199C17.0199 9.47465 16.3729 9.79965 15.7448 10.1672L14.4474 9.00162L14.3373 9.07138C14.222 9.14795 13.9811 9.31641 13.7057 9.51379L13.6524 9.9681C13.9466 9.75541 14.2357 9.55122 14.4147 9.42701L15.7053 10.5875L15.8154 10.5211C16.5002 10.111 17.2109 9.75541 17.9233 9.45934L18.042 9.40999L17.8459 7.71014C18.2709 7.5553 19.2655 7.23371 19.6974 7.11119L20.5715 8.60856L20.6972 8.57793C21.4113 8.40097 22.1976 8.27676 23.0357 8.2087L23.163 8.19849L23.502 6.52075C23.7136 6.51395 24.0733 6.50884 24.4794 6.50884C24.8872 6.50884 25.2468 6.51395 25.4585 6.52075L25.8095 8.19849L25.9368 8.2087C26.7112 8.26995 27.4769 8.39246 28.2771 8.57964L28.4027 8.60856L29.251 7.1129C29.6932 7.23541 30.6964 7.5553 31.1146 7.71184L30.9201 9.4134L31.0371 9.46274C31.7616 9.76392 32.4774 10.1212 33.1606 10.5245L33.269 10.5875L34.5337 9.42701C34.914 9.67714 35.7658 10.2982 36.1202 10.5722L35.4044 12.1308L35.5008 12.2142C36.1134 12.7399 36.6623 13.2844 37.1854 13.8766L37.2714 13.9736L38.839 13.2589C39.1195 13.6077 39.7373 14.4534 39.9919 14.8311L38.8167 16.0937L38.8838 16.2026C39.3036 16.8883 39.6633 17.5928 39.9558 18.2989L40.0057 18.4163L41.7402 18.2087C41.8882 18.6239 42.2117 19.6193 42.3356 20.0515L40.8196 20.904L40.8523 21.0265C41.033 21.7344 41.1569 22.5137 41.2274 23.3406L41.2378 23.4648L42.9482 23.8017C42.9654 24.2458 42.9654 25.2906 42.9465 25.7347L41.2378 26.0818L41.2274 26.2077C41.1672 26.9377 41.0502 27.6966 40.8644 28.5253L40.8368 28.6461L42.3356 29.4968C42.2203 29.9154 41.8916 30.8955 41.7368 31.3277L40.0074 31.1474L39.9575 31.2597C39.6461 31.9794 39.283 32.6805 38.8838 33.3475L38.8184 33.4547L39.9902 34.7155C39.7355 35.083 39.1195 35.9253 38.8476 36.2741L37.2577 35.5663L37.1733 35.6633C36.6898 36.2265 36.1409 36.771 35.4905 37.3274L35.3958 37.4108L36.1237 38.9677C35.7641 39.2365 34.9157 39.8508 34.5475 40.0992L33.2569 38.9388L33.1485 39.0034C32.4877 39.3982 31.7771 39.7589 31.0371 40.0788L30.9219 40.1282L31.1163 41.828C30.693 41.976 29.6932 42.2959 29.251 42.427L28.3906 40.933L28.2667 40.9636C27.5423 41.1287 26.7766 41.2529 25.9214 41.3346L25.7957 41.3482L25.4585 43.0174C25.2468 43.0208 24.8889 43.0259 24.4862 43.0259C24.0819 43.0259 23.7205 43.0208 23.5037 43.0174L23.1509 41.3329L23.0236 41.3192C22.2871 41.2631 21.4973 41.1406 20.6799 40.9636L20.5561 40.9347L19.7112 42.427C19.2758 42.2959 18.2795 41.976 17.8441 41.828L18.0403 40.1162L17.9233 40.0652C17.1971 39.764 16.483 39.405 15.7999 39.0034L15.6915 38.9388L14.4147 40.0975C14.043 39.8474 13.1912 39.2382 12.8368 38.9694L13.5526 37.3989L13.458 37.3155C12.8144 36.7472 12.2637 36.2061 11.7733 35.6599L11.6907 35.568L10.118 36.2741ZM6.25316 29.4594C6.31511 29.6653 6.51816 30.3 6.6954 30.8292L6.9277 30.4531C6.80725 30.0907 6.68851 29.7163 6.61624 29.4866L8.12362 28.641L8.09781 28.5202C7.91197 27.6609 7.79324 26.9037 7.73473 26.2009L7.72441 26.0767L6.01914 25.7296C6.01054 25.2804 6.01054 24.2424 6.01914 23.7932L7.72441 23.4461L7.73473 23.3219C7.79496 22.5885 7.91197 21.8296 8.09781 21.0027L8.12534 20.8819L7.46973 20.5194L6.89328 20.5858L7.73817 21.0537C7.57814 21.8007 7.46801 22.4949 7.40779 23.1671L5.68876 23.5176L5.68359 23.6503C5.67155 24.0144 5.67155 25.5118 5.68359 25.8725L5.68876 26.007L7.40779 26.3558C7.46801 27.0041 7.57814 27.6966 7.73989 28.4708L6.21359 29.3301L6.25316 29.4594Z" fill="white"/>
<path fill-rule="evenodd" clip-rule="evenodd" d="M21.6402 20.8938L12.3498 18.1832L12.484 17.9535C14.4853 14.5181 17.8786 12.1104 21.7916 11.3481L22.0549 11.2953L21.6402 20.8938ZM27.329 20.904L27.0519 11.3208L27.3152 11.377C31.2454 12.192 34.6129 14.644 36.5556 18.0981L36.6864 18.3295L27.329 20.904ZM14.4027 34.1421L14.2237 33.9464C11.5428 31.001 10.2746 27.0619 10.7461 23.1398L10.7771 22.8761L19.8867 26.2299L14.4027 34.1421ZM34.4477 34.2612L29.0772 26.252L38.2007 23.0343L38.2299 23.2964C38.6636 27.2304 37.3506 31.1542 34.6318 34.0638L34.4477 34.2612ZM18.6719 37.1896C20.4959 38.0216 22.4437 38.4436 24.4587 38.4436C26.4066 38.4436 28.3717 38.0267 30.1424 37.2423L30.3885 37.1351L24.476 29.5496L18.4258 37.079L18.6719 37.1896ZM24.4587 38.0233C22.5952 38.0233 20.7918 37.6541 19.0934 36.919L24.4708 30.2268L29.7225 36.965C28.0723 37.6575 26.2569 38.0233 24.4587 38.0233ZM34.5011 33.5823L29.7277 26.4681L37.8359 23.6095C38.1611 27.2423 36.9548 30.853 34.5011 33.5823ZM14.3579 33.4666C11.942 30.7032 10.7753 27.0806 11.135 23.4546L19.2294 26.434L14.3579 33.4666ZM27.7368 20.3578L27.4907 11.8432C31.1008 12.6685 34.1965 14.9196 36.0532 18.0709L27.7368 20.3578ZM21.2392 20.3408L12.9865 17.9348C14.8948 14.8005 18.0128 12.5868 21.6092 11.8126L21.2392 20.3408Z" fill="white"/>
<path fill-rule="evenodd" clip-rule="evenodd" d="M24.2832 11.6663L21.2186 20.317L11.942 20.5382L11.3707 20.5518L11.825 20.8938L19.2001 26.4494L16.5433 35.2566L16.3798 35.796L16.8496 35.4761L24.4743 30.2608L32.1109 35.4761L32.5807 35.796L32.4155 35.2566L29.7604 26.4749L37.1355 20.8955L37.5864 20.5518L37.0185 20.5399L27.754 20.3323L24.6618 11.6663L24.4725 11.1354L24.2832 11.6663ZM21.5507 20.5773L24.4725 12.3282L27.4236 20.5909L27.4701 20.7202L27.6095 20.7219L36.4404 20.921L29.4094 26.2418L29.2992 26.3252L29.3388 26.4562L31.87 34.8295L24.5878 29.8576L24.4743 29.7793L24.3607 29.8576L17.0905 34.8295L19.6235 26.4306L19.663 26.2979L19.5512 26.2163L12.5219 20.921L21.3666 20.71L21.506 20.7066L21.5507 20.5773Z" fill="white"/>
<path d="M8.15112 38.6903L8.15284 38.6954L8.15112 38.6903Z" fill="white"/>
<path d="M7.35095 37.0824L8.1511 38.6903L7.35095 37.0824Z" fill="white"/>
</svg>
