<?xml version='1.0' encoding='utf-8'?>
<!DOCTYPE svg PUBLIC '-//W3C//DTD SVG 1.1//EN' 'http://www.w3.org/Graphics/SVG/1.1/DTD/svg11.dtd'>
<svg version="1.1" xmlns="http://www.w3.org/2000/svg" viewBox="0 0 512 512" xmlns:xlink="http://www.w3.org/1999/xlink" enable-background="new 0 0 512 512">
  <g>
    <g>
      <path fill="#0066CC" d="m495,17c-8-8-20.9-8-28.9,0l-39.9,39.9c-16.8-11.2-36.4-17.2-57-17.2-27.5,0-53.4,10.7-72.9,30.2l-58.4,58.4c-8,8-8,20.9 0,28.9l116.9,116.9c12.5,11.3 25,3.8 28.9,0l58.4-58.4c35.2-35.2 39.6-89.9 13-129.9l39.9-39.9c8-8 8-20.9 0-28.9zm-81.8,169.8l-44,44-88-88 44-44c11.8-11.8 27.4-18.2 44-18.2 16.6,0 32.3,6.5 44,18.2 24.3,24.2 24.3,63.7 0,88z"/>
      <path fill="#0066CC" d="m268.9,274.5l-37.6,37.5-31.3-31.4 37.5-37.5c8-8 8-20.9 0-28.9-8-8-20.9-8-28.9,0l-37.5,37.5-13.9-13.9c-3.8-3.8-16.1-11.2-28.9,0l-58.4,58.4c-35.2,35.2-39.6,89.9-13,129.9l-39.9,40c-8,8-8,20.9 0,28.9 8,8 20.9,8 28.9,0l39.9-39.9c16.8,11.2 36.4,17.2 57,17.2 27.5,0 53.4-10.7 72.9-30.2l58.4-58.4c8-8 8-20.9 0-28.9l-13.9-13.9 37.5-37.5c8-8 8-20.9 0-28.9-7.9-8-20.9-8-28.8-1.13687e-13zm-82.1,138.7c-11.8,11.8-27.4,18.2-44,18.2s-32.3-6.5-44-18.2c-24.3-24.3-24.3-63.8 0-88l44-44 88,88-44,44z"/>
    </g>
  </g>
</svg>
